<svg width="71" height="18" viewBox="0 0 71 18" fill="none" xmlns="http://www.w3.org/2000/svg">
<path d="M0.0346094 11.4C0.0346094 10.2533 0.247943 9.24667 0.674609 8.38C1.11461 7.51333 1.70794 6.84667 2.45461 6.38C3.20128 5.91333 4.03461 5.68 4.95461 5.68C5.74128 5.68 6.42794 5.84 7.01461 6.16C7.61461 6.48 8.07461 6.9 8.39461 7.42V5.84H11.8146V17H8.39461V15.42C8.06128 15.94 7.59461 16.36 6.99461 16.68C6.40794 17 5.72128 17.16 4.93461 17.16C4.02794 17.16 3.20128 16.9267 2.45461 16.46C1.70794 15.98 1.11461 15.3067 0.674609 14.44C0.247943 13.56 0.0346094 12.5467 0.0346094 11.4ZM8.39461 11.42C8.39461 10.5667 8.15461 9.89333 7.67461 9.4C7.20794 8.90667 6.63461 8.66 5.95461 8.66C5.27461 8.66 4.69461 8.90667 4.21461 9.4C3.74794 9.88 3.51461 10.5467 3.51461 11.4C3.51461 12.2533 3.74794 12.9333 4.21461 13.44C4.69461 13.9333 5.27461 14.18 5.95461 14.18C6.63461 14.18 7.20794 13.9333 7.67461 13.44C8.15461 12.9467 8.39461 12.2733 8.39461 11.42ZM17.7088 7.7C18.1088 7.08667 18.6088 6.60667 19.2088 6.26C19.8088 5.9 20.4755 5.72 21.2088 5.72V9.34H20.2688C19.4155 9.34 18.7755 9.52667 18.3488 9.9C17.9222 10.26 17.7088 10.9 17.7088 11.82V17H14.2888V5.84H17.7088V7.7ZM24.5635 4.68C23.9635 4.68 23.4702 4.50667 23.0835 4.16C22.7102 3.8 22.5235 3.36 22.5235 2.84C22.5235 2.30667 22.7102 1.86667 23.0835 1.52C23.4702 1.16 23.9635 0.979999 24.5635 0.979999C25.1502 0.979999 25.6302 1.16 26.0035 1.52C26.3902 1.86667 26.5835 2.30667 26.5835 2.84C26.5835 3.36 26.3902 3.8 26.0035 4.16C25.6302 4.50667 25.1502 4.68 24.5635 4.68ZM26.2635 5.84V17H22.8435V5.84H26.2635ZM38.842 2.96V5.7H35.122V17H31.702V5.7H27.982V2.96H38.842ZM51.0784 11.24C51.0784 11.56 51.0584 11.8933 51.0184 12.24H43.2784C43.3317 12.9333 43.5517 13.4667 43.9384 13.84C44.3384 14.2 44.825 14.38 45.3984 14.38C46.2517 14.38 46.845 14.02 47.1784 13.3H50.8184C50.6317 14.0333 50.2917 14.6933 49.7984 15.28C49.3184 15.8667 48.7117 16.3267 47.9784 16.66C47.245 16.9933 46.425 17.16 45.5184 17.16C44.425 17.16 43.4517 16.9267 42.5984 16.46C41.745 15.9933 41.0784 15.3267 40.5984 14.46C40.1184 13.5933 39.8784 12.58 39.8784 11.42C39.8784 10.26 40.1117 9.24667 40.5784 8.38C41.0584 7.51333 41.725 6.84667 42.5784 6.38C43.4317 5.91333 44.4117 5.68 45.5184 5.68C46.5984 5.68 47.5584 5.90667 48.3984 6.36C49.2384 6.81333 49.8917 7.46 50.3584 8.3C50.8384 9.14 51.0784 10.12 51.0784 11.24ZM47.5784 10.34C47.5784 9.75333 47.3784 9.28667 46.9784 8.94C46.5784 8.59333 46.0784 8.42 45.4784 8.42C44.905 8.42 44.4184 8.58667 44.0184 8.92C43.6317 9.25333 43.3917 9.72667 43.2984 10.34H47.5784ZM59.4826 17L57.3426 13.9L55.5426 17H51.8426L55.5226 11.3L51.7426 5.84H55.5826L57.7226 8.92L59.5226 5.84H63.2226L59.4826 11.46L63.3226 17H59.4826ZM70.8604 14.1V17H69.1204C67.8804 17 66.9137 16.7 66.2204 16.1C65.5271 15.4867 65.1804 14.4933 65.1804 13.12V8.68H63.8204V5.84H65.1804V3.12H68.6004V5.84H70.8404V8.68H68.6004V13.16C68.6004 13.4933 68.6804 13.7333 68.8404 13.88C69.0004 14.0267 69.2671 14.1 69.6404 14.1H70.8604Z" fill="#FFE589"/>
</svg>
