<svg width="281" height="600" viewBox="0 0 281 600" fill="none" xmlns="http://www.w3.org/2000/svg">
<path d="M8 39C8 22.4315 21.4315 9 38 9H243C259.569 9 273 22.4315 273 39V561C273 577.569 259.569 591 243 591H38C21.4315 591 8 577.569 8 561V39Z" fill="#130129"/>
<g style="mix-blend-mode:luminosity">
<path opacity="0.75" d="M47.1568 596C22.8365 595.725 3 577.344 3 555.441L3.9964 44.8158C3.53033 20.7844 15 5 41.8538 5H240.21C268.067 6.4977 278.343 23.6057 277.992 47.3976L276.992 555.462C275.553 579.135 263.776 594.176 233.683 595L47.1568 596Z" stroke="#EFE5E5" stroke-width="6"/>
<path opacity="0.95" d="M49.1415 593C25.7105 592 6 578.439 6 553.008V40.9512C7.42106 21.3671 15.64 8.07505 38.2553 7H236.915C264.547 9.12217 275.305 23.6537 274.999 40.7841V552.024C272.934 579.897 262.072 592.34 232.397 593H49.1415Z" stroke="#E2DADA" stroke-width="4"/>
<g opacity="0.95" filter="url(#filter0_d_270_74)">
<path d="M51.7839 591C29.6407 591 8 578.583 8 552.509V44.4325C8.40001 21.1934 17.4972 10.0587 40.7776 9.00004H237.466C258.764 8.66738 273.238 23.7192 273 40.2679V550.567C271.951 575.06 263.117 589.357 234.866 591.003L51.7839 591Z" stroke="#D3CDCD" stroke-width="0.5" shape-rendering="crispEdges"/>
</g>
</g>
<path d="M200.798 32H77.0663C70.8675 29.8766 68.6452 28.1873 66.4214 21.4231C64.3442 15.1046 62.913 8.92308 58 7H222C217.087 9.88462 215.742 13.9025 213.812 20.4615C212.025 27.7817 206.419 31.1654 200.798 32Z" fill="#F0E9E9" stroke="#E1D9D9"/>
<path d="M88.9814 18.7539H173.981" stroke="#A9A7A8" stroke-width="6" stroke-linecap="round"/>
<rect x="193" y="14.5081" width="8" height="8" rx="4" fill="#A9A7A8"/>
<path d="M87 582.008H192" stroke="#999797" stroke-opacity="0.8" stroke-width="5" stroke-linecap="round"/>
<rect x="25" y="191" width="230" height="160" rx="10" fill="white"/>
<path d="M77.8809 328.977C77.8809 328.822 77.8398 328.683 77.7578 328.56C77.6758 328.437 77.5208 328.325 77.293 328.225C77.0697 328.12 76.7415 328.022 76.3086 327.931C75.9258 327.849 75.5726 327.746 75.249 327.623C74.9255 327.5 74.6475 327.352 74.415 327.179C74.1826 327.001 74.0003 326.794 73.8682 326.557C73.7406 326.315 73.6768 326.037 73.6768 325.723C73.6768 325.417 73.7428 325.13 73.875 324.861C74.0072 324.588 74.1986 324.349 74.4492 324.144C74.6999 323.934 75.0052 323.77 75.3652 323.651C75.7253 323.528 76.1309 323.467 76.582 323.467C77.2109 323.467 77.751 323.569 78.2021 323.774C78.6579 323.979 79.0065 324.262 79.248 324.622C79.4896 324.978 79.6104 325.379 79.6104 325.825H77.8057C77.8057 325.629 77.7601 325.451 77.6689 325.292C77.5824 325.132 77.4479 325.005 77.2656 324.909C77.0833 324.809 76.8532 324.759 76.5752 324.759C76.3245 324.759 76.1126 324.8 75.9395 324.882C75.7708 324.964 75.6432 325.071 75.5566 325.203C75.4701 325.335 75.4268 325.481 75.4268 325.641C75.4268 325.759 75.4495 325.866 75.4951 325.962C75.5452 326.053 75.625 326.137 75.7344 326.215C75.8438 326.292 75.9919 326.363 76.1787 326.427C76.3701 326.491 76.6048 326.552 76.8828 326.611C77.4342 326.721 77.915 326.867 78.3252 327.049C78.7399 327.227 79.0635 327.464 79.2959 327.76C79.5283 328.056 79.6445 328.434 79.6445 328.895C79.6445 329.223 79.5739 329.523 79.4326 329.797C79.2913 330.066 79.0863 330.3 78.8174 330.501C78.5485 330.701 78.2272 330.859 77.8535 330.973C77.4798 331.082 77.0583 331.137 76.5889 331.137C75.9098 331.137 75.3356 331.016 74.8662 330.774C74.3968 330.528 74.0413 330.218 73.7998 329.845C73.5583 329.466 73.4375 329.075 73.4375 328.669H75.167C75.1807 328.956 75.2581 329.186 75.3994 329.359C75.5407 329.533 75.7184 329.658 75.9326 329.735C76.1514 329.808 76.3815 329.845 76.623 329.845C76.8965 329.845 77.1266 329.808 77.3135 329.735C77.5003 329.658 77.6416 329.555 77.7373 329.428C77.833 329.296 77.8809 329.145 77.8809 328.977ZM85.2328 329.428V326.017C85.2328 325.766 85.1895 325.549 85.1029 325.367C85.0163 325.185 84.8841 325.044 84.7064 324.943C84.5287 324.843 84.3031 324.793 84.0296 324.793C83.7881 324.793 83.5762 324.834 83.3939 324.916C83.2162 324.998 83.0795 325.114 82.9837 325.265C82.888 325.41 82.8402 325.579 82.8402 325.771H81.0287C81.0287 325.465 81.1016 325.176 81.2474 324.902C81.3933 324.624 81.6006 324.378 81.8695 324.164C82.1429 323.945 82.4688 323.774 82.847 323.651C83.2298 323.528 83.6582 323.467 84.1322 323.467C84.6927 323.467 85.1918 323.562 85.6293 323.754C86.0713 323.941 86.4177 324.223 86.6683 324.602C86.9235 324.98 87.0511 325.456 87.0511 326.03V329.257C87.0511 329.626 87.0739 329.943 87.1195 330.207C87.1696 330.467 87.2425 330.692 87.3382 330.884V331H85.4994C85.4128 330.813 85.3467 330.576 85.3011 330.289C85.2556 329.997 85.2328 329.71 85.2328 329.428ZM85.4857 326.495L85.4994 327.568H84.3578C84.0752 327.568 83.8268 327.598 83.6127 327.657C83.3985 327.712 83.223 327.794 83.0863 327.903C82.9496 328.008 82.847 328.136 82.7787 328.286C82.7103 328.432 82.6761 328.598 82.6761 328.785C82.6761 328.967 82.7171 329.132 82.7992 329.277C82.8858 329.423 83.0088 329.539 83.1683 329.626C83.3324 329.708 83.5238 329.749 83.7425 329.749C84.0615 329.749 84.3395 329.685 84.5765 329.558C84.8135 329.425 84.9981 329.266 85.1302 329.079C85.2624 328.892 85.333 328.715 85.3421 328.546L85.8617 329.325C85.7979 329.512 85.7022 329.71 85.5746 329.92C85.447 330.13 85.2829 330.326 85.0824 330.508C84.8819 330.69 84.6403 330.84 84.3578 330.959C84.0752 331.077 83.7471 331.137 83.3734 331.137C82.8949 331.137 82.4665 331.041 82.0882 330.85C81.71 330.658 81.4115 330.396 81.1927 330.063C80.974 329.731 80.8646 329.353 80.8646 328.929C80.8646 328.537 80.9375 328.19 81.0834 327.89C81.2292 327.589 81.4457 327.336 81.7328 327.131C82.0199 326.921 82.3754 326.764 82.7992 326.659C83.2276 326.55 83.7175 326.495 84.2689 326.495H85.4857ZM91.1628 329.633L92.8855 323.604H94.7722L92.2361 331H91.0876L91.1628 329.633ZM89.905 323.604L91.6482 329.646L91.7097 331H90.5544L88.0114 323.604H89.905ZM99.0889 331.137C98.5284 331.137 98.0248 331.046 97.5782 330.863C97.1316 330.681 96.7511 330.428 96.4366 330.104C96.1267 329.776 95.8874 329.396 95.7188 328.963C95.5548 328.525 95.4727 328.056 95.4727 327.555V327.281C95.4727 326.712 95.5548 326.194 95.7188 325.729C95.8829 325.26 96.1153 324.857 96.4161 324.52C96.7169 324.182 97.0769 323.923 97.4962 323.74C97.9154 323.558 98.378 323.467 98.8839 323.467C99.408 323.467 99.8705 323.556 100.272 323.733C100.673 323.907 101.008 324.153 101.276 324.472C101.545 324.791 101.748 325.174 101.885 325.62C102.022 326.062 102.09 326.552 102.09 327.09V327.849H96.293V326.604H100.313V326.468C100.303 326.181 100.249 325.919 100.149 325.682C100.048 325.44 99.8933 325.249 99.6837 325.107C99.474 324.962 99.2029 324.889 98.8702 324.889C98.6013 324.889 98.3666 324.948 98.1661 325.066C97.9701 325.18 97.8061 325.344 97.6739 325.559C97.5463 325.768 97.4506 326.019 97.3868 326.311C97.323 326.602 97.2911 326.926 97.2911 327.281V327.555C97.2911 327.865 97.3321 328.152 97.4141 328.416C97.5007 328.68 97.6261 328.91 97.7901 329.106C97.9587 329.298 98.1593 329.448 98.3917 329.558C98.6287 329.662 98.8975 329.715 99.1983 329.715C99.5766 329.715 99.9184 329.642 100.224 329.496C100.534 329.346 100.802 329.125 101.03 328.833L101.94 329.776C101.785 330.004 101.575 330.223 101.311 330.433C101.051 330.642 100.736 330.813 100.367 330.945C99.9981 331.073 99.572 331.137 99.0889 331.137Z" fill="#3F3838"/>
<path d="M171.849 329.715C172.104 329.715 172.332 329.665 172.532 329.564C172.733 329.464 172.892 329.323 173.011 329.141C173.134 328.958 173.2 328.746 173.209 328.505H174.911C174.902 329.006 174.761 329.455 174.487 329.852C174.214 330.248 173.849 330.562 173.394 330.795C172.942 331.023 172.437 331.137 171.876 331.137C171.306 331.137 170.81 331.041 170.386 330.85C169.962 330.658 169.609 330.392 169.326 330.05C169.048 329.708 168.839 329.312 168.697 328.86C168.561 328.409 168.492 327.926 168.492 327.411V327.192C168.492 326.677 168.561 326.194 168.697 325.743C168.839 325.292 169.048 324.896 169.326 324.554C169.609 324.212 169.962 323.945 170.386 323.754C170.81 323.562 171.304 323.467 171.869 323.467C172.466 323.467 172.99 323.583 173.441 323.815C173.897 324.048 174.253 324.376 174.508 324.8C174.768 325.224 174.902 325.723 174.911 326.297H173.209C173.2 326.033 173.141 325.796 173.031 325.586C172.922 325.376 172.767 325.208 172.566 325.08C172.366 324.952 172.122 324.889 171.835 324.889C171.53 324.889 171.274 324.952 171.069 325.08C170.869 325.208 170.712 325.383 170.598 325.606C170.488 325.825 170.411 326.071 170.365 326.345C170.324 326.614 170.304 326.896 170.304 327.192V327.411C170.304 327.712 170.324 327.999 170.365 328.272C170.411 328.546 170.488 328.792 170.598 329.011C170.712 329.225 170.869 329.396 171.069 329.523C171.274 329.651 171.534 329.715 171.849 329.715ZM180.328 329.428V326.017C180.328 325.766 180.285 325.549 180.199 325.367C180.112 325.185 179.98 325.044 179.802 324.943C179.624 324.843 179.399 324.793 179.125 324.793C178.884 324.793 178.672 324.834 178.49 324.916C178.312 324.998 178.175 325.114 178.079 325.265C177.984 325.41 177.936 325.579 177.936 325.771H176.124C176.124 325.465 176.197 325.176 176.343 324.902C176.489 324.624 176.696 324.378 176.965 324.164C177.239 323.945 177.564 323.774 177.943 323.651C178.326 323.528 178.754 323.467 179.228 323.467C179.788 323.467 180.287 323.562 180.725 323.754C181.167 323.941 181.513 324.223 181.764 324.602C182.019 324.98 182.147 325.456 182.147 326.03V329.257C182.147 329.626 182.17 329.943 182.215 330.207C182.265 330.467 182.338 330.692 182.434 330.884V331H180.595C180.508 330.813 180.442 330.576 180.397 330.289C180.351 329.997 180.328 329.71 180.328 329.428ZM180.581 326.495L180.595 327.568H179.453C179.171 327.568 178.923 327.598 178.708 327.657C178.494 327.712 178.319 327.794 178.182 327.903C178.045 328.008 177.943 328.136 177.874 328.286C177.806 328.432 177.772 328.598 177.772 328.785C177.772 328.967 177.813 329.132 177.895 329.277C177.981 329.423 178.105 329.539 178.264 329.626C178.428 329.708 178.619 329.749 178.838 329.749C179.157 329.749 179.435 329.685 179.672 329.558C179.909 329.425 180.094 329.266 180.226 329.079C180.358 328.892 180.429 328.715 180.438 328.546L180.957 329.325C180.894 329.512 180.798 329.71 180.67 329.92C180.543 330.13 180.379 330.326 180.178 330.508C179.978 330.69 179.736 330.84 179.453 330.959C179.171 331.077 178.843 331.137 178.469 331.137C177.991 331.137 177.562 331.041 177.184 330.85C176.806 330.658 176.507 330.396 176.288 330.063C176.07 329.731 175.96 329.353 175.96 328.929C175.96 328.537 176.033 328.19 176.179 327.89C176.325 327.589 176.541 327.336 176.828 327.131C177.116 326.921 177.471 326.764 177.895 326.659C178.323 326.55 178.813 326.495 179.365 326.495H180.581ZM185.684 325.183V331H183.88V323.604H185.575L185.684 325.183ZM185.397 327.035H184.864C184.869 326.497 184.941 326.01 185.083 325.572C185.224 325.135 185.422 324.759 185.677 324.444C185.937 324.13 186.245 323.888 186.6 323.72C186.956 323.551 187.352 323.467 187.79 323.467C188.145 323.467 188.467 323.517 188.754 323.617C189.041 323.717 189.287 323.877 189.492 324.096C189.702 324.314 189.861 324.602 189.97 324.957C190.084 325.308 190.141 325.741 190.141 326.256V331H188.323V326.242C188.323 325.905 188.273 325.638 188.173 325.442C188.077 325.246 187.936 325.107 187.749 325.025C187.566 324.943 187.341 324.902 187.072 324.902C186.794 324.902 186.55 324.959 186.341 325.073C186.135 325.183 185.962 325.335 185.821 325.531C185.684 325.727 185.579 325.953 185.507 326.208C185.434 326.463 185.397 326.739 185.397 327.035ZM194.909 329.715C195.164 329.715 195.392 329.665 195.593 329.564C195.793 329.464 195.953 329.323 196.071 329.141C196.194 328.958 196.26 328.746 196.27 328.505H197.972C197.963 329.006 197.821 329.455 197.548 329.852C197.274 330.248 196.91 330.562 196.454 330.795C196.003 331.023 195.497 331.137 194.937 331.137C194.367 331.137 193.87 331.041 193.446 330.85C193.023 330.658 192.669 330.392 192.387 330.05C192.109 329.708 191.899 329.312 191.758 328.86C191.621 328.409 191.553 327.926 191.553 327.411V327.192C191.553 326.677 191.621 326.194 191.758 325.743C191.899 325.292 192.109 324.896 192.387 324.554C192.669 324.212 193.023 323.945 193.446 323.754C193.87 323.562 194.365 323.467 194.93 323.467C195.527 323.467 196.051 323.583 196.502 323.815C196.958 324.048 197.313 324.376 197.568 324.8C197.828 325.224 197.963 325.723 197.972 326.297H196.27C196.26 326.033 196.201 325.796 196.092 325.586C195.983 325.376 195.828 325.208 195.627 325.08C195.427 324.952 195.183 324.889 194.896 324.889C194.59 324.889 194.335 324.952 194.13 325.08C193.929 325.208 193.772 325.383 193.658 325.606C193.549 325.825 193.471 326.071 193.426 326.345C193.385 326.614 193.364 326.896 193.364 327.192V327.411C193.364 327.712 193.385 327.999 193.426 328.272C193.471 328.546 193.549 328.792 193.658 329.011C193.772 329.225 193.929 329.396 194.13 329.523C194.335 329.651 194.595 329.715 194.909 329.715ZM202.637 331.137C202.077 331.137 201.573 331.046 201.126 330.863C200.68 330.681 200.299 330.428 199.985 330.104C199.675 329.776 199.436 329.396 199.267 328.963C199.103 328.525 199.021 328.056 199.021 327.555V327.281C199.021 326.712 199.103 326.194 199.267 325.729C199.431 325.26 199.664 324.857 199.964 324.52C200.265 324.182 200.625 323.923 201.044 323.74C201.464 323.558 201.926 323.467 202.432 323.467C202.956 323.467 203.419 323.556 203.82 323.733C204.221 323.907 204.556 324.153 204.825 324.472C205.094 324.791 205.296 325.174 205.433 325.62C205.57 326.062 205.638 326.552 205.638 327.09V327.849H199.841V326.604H203.861V326.468C203.852 326.181 203.797 325.919 203.697 325.682C203.596 325.44 203.442 325.249 203.232 325.107C203.022 324.962 202.751 324.889 202.418 324.889C202.15 324.889 201.915 324.948 201.714 325.066C201.518 325.18 201.354 325.344 201.222 325.559C201.095 325.768 200.999 326.019 200.935 326.311C200.871 326.602 200.839 326.926 200.839 327.281V327.555C200.839 327.865 200.88 328.152 200.962 328.416C201.049 328.68 201.174 328.91 201.338 329.106C201.507 329.298 201.707 329.448 201.94 329.558C202.177 329.662 202.446 329.715 202.747 329.715C203.125 329.715 203.467 329.642 203.772 329.496C204.082 329.346 204.351 329.125 204.579 328.833L205.488 329.776C205.333 330.004 205.123 330.223 204.859 330.433C204.599 330.642 204.285 330.813 203.915 330.945C203.546 331.073 203.12 331.137 202.637 331.137ZM208.902 320.5V331H207.091V320.5H208.902Z" fill="#3F3838"/>
<path d="M44.8301 204.047V214H42.9502V204.047H44.8301ZM48.8428 208.347V209.83H44.3379V208.347H48.8428ZM49.3691 204.047V205.53H44.3379V204.047H49.3691ZM52.5648 203.5V214H50.7533V203.5H52.5648ZM58.5017 212.428V209.017C58.5017 208.766 58.4584 208.549 58.3718 208.367C58.2852 208.185 58.153 208.044 57.9753 207.943C57.7976 207.843 57.572 207.793 57.2986 207.793C57.057 207.793 56.8451 207.834 56.6628 207.916C56.4851 207.998 56.3484 208.114 56.2527 208.265C56.157 208.41 56.1091 208.579 56.1091 208.771H54.2976C54.2976 208.465 54.3705 208.176 54.5163 207.902C54.6622 207.624 54.8695 207.378 55.1384 207.164C55.4118 206.945 55.7377 206.774 56.1159 206.651C56.4987 206.528 56.9271 206.467 57.4011 206.467C57.9616 206.467 58.4607 206.562 58.8982 206.754C59.3402 206.941 59.6866 207.223 59.9372 207.602C60.1924 207.98 60.32 208.456 60.32 209.03V212.257C60.32 212.626 60.3428 212.943 60.3884 213.207C60.4385 213.467 60.5114 213.692 60.6071 213.884V214H58.7683C58.6817 213.813 58.6156 213.576 58.57 213.289C58.5245 212.997 58.5017 212.71 58.5017 212.428ZM58.7546 209.495L58.7683 210.568H57.6267C57.3441 210.568 57.0958 210.598 56.8816 210.657C56.6674 210.712 56.4919 210.794 56.3552 210.903C56.2185 211.008 56.1159 211.136 56.0476 211.286C55.9792 211.432 55.945 211.598 55.945 211.785C55.945 211.967 55.9861 212.132 56.0681 212.277C56.1547 212.423 56.2777 212.539 56.4372 212.626C56.6013 212.708 56.7927 212.749 57.0114 212.749C57.3305 212.749 57.6085 212.685 57.8454 212.558C58.0824 212.425 58.267 212.266 58.3991 212.079C58.5313 211.892 58.6019 211.715 58.6111 211.546L59.1306 212.325C59.0668 212.512 58.9711 212.71 58.8435 212.92C58.7159 213.13 58.5518 213.326 58.3513 213.508C58.1508 213.69 57.9092 213.84 57.6267 213.959C57.3441 214.077 57.016 214.137 56.6423 214.137C56.1638 214.137 55.7354 214.041 55.3571 213.85C54.9789 213.658 54.6804 213.396 54.4616 213.063C54.2429 212.731 54.1335 212.353 54.1335 211.929C54.1335 211.537 54.2064 211.19 54.3523 210.89C54.4981 210.589 54.7146 210.336 55.0017 210.131C55.2888 209.921 55.6443 209.764 56.0681 209.659C56.4965 209.55 56.9864 209.495 57.5378 209.495H58.7546ZM66.1544 211.977C66.1544 211.822 66.1134 211.683 66.0313 211.56C65.9493 211.437 65.7943 211.325 65.5665 211.225C65.3432 211.12 65.0151 211.022 64.5821 210.931C64.1993 210.849 63.8461 210.746 63.5225 210.623C63.199 210.5 62.921 210.352 62.6886 210.179C62.4561 210.001 62.2738 209.794 62.1417 209.557C62.0141 209.315 61.9503 209.037 61.9503 208.723C61.9503 208.417 62.0164 208.13 62.1485 207.861C62.2807 207.588 62.4721 207.349 62.7227 207.144C62.9734 206.934 63.2787 206.77 63.6388 206.651C63.9988 206.528 64.4044 206.467 64.8555 206.467C65.4845 206.467 66.0245 206.569 66.4757 206.774C66.9314 206.979 67.28 207.262 67.5216 207.622C67.7631 207.978 67.8839 208.379 67.8839 208.825H66.0792C66.0792 208.629 66.0336 208.451 65.9425 208.292C65.8559 208.132 65.7214 208.005 65.5391 207.909C65.3568 207.809 65.1267 207.759 64.8487 207.759C64.5981 207.759 64.3861 207.8 64.213 207.882C64.0443 207.964 63.9167 208.071 63.8302 208.203C63.7436 208.335 63.7003 208.481 63.7003 208.641C63.7003 208.759 63.7231 208.866 63.7686 208.962C63.8188 209.053 63.8985 209.137 64.0079 209.215C64.1173 209.292 64.2654 209.363 64.4522 209.427C64.6436 209.491 64.8783 209.552 65.1563 209.611C65.7078 209.721 66.1886 209.867 66.5987 210.049C67.0134 210.227 67.337 210.464 67.5694 210.76C67.8018 211.056 67.918 211.434 67.918 211.895C67.918 212.223 67.8474 212.523 67.7061 212.797C67.5649 213.066 67.3598 213.3 67.0909 213.501C66.822 213.701 66.5007 213.859 66.127 213.973C65.7533 214.082 65.3318 214.137 64.8624 214.137C64.1833 214.137 63.6091 214.016 63.1397 213.774C62.6703 213.528 62.3149 213.218 62.0733 212.845C61.8318 212.466 61.711 212.075 61.711 211.669H63.4405C63.4542 211.956 63.5317 212.186 63.6729 212.359C63.8142 212.533 63.9919 212.658 64.2061 212.735C64.4249 212.808 64.655 212.845 64.8966 212.845C65.17 212.845 65.4001 212.808 65.587 212.735C65.7738 212.658 65.9151 212.555 66.0108 212.428C66.1065 212.296 66.1544 212.145 66.1544 211.977ZM71.2026 203.5V214H69.3911V203.5H71.2026ZM70.9155 210.035H70.3823C70.3823 209.52 70.4506 209.046 70.5873 208.613C70.7241 208.18 70.9177 207.804 71.1684 207.485C71.419 207.162 71.7176 206.911 72.0639 206.733C72.4148 206.556 72.8022 206.467 73.226 206.467C73.5906 206.467 73.921 206.519 74.2172 206.624C74.518 206.724 74.7755 206.886 74.9897 207.109C75.2039 207.333 75.3679 207.624 75.4819 207.984C75.6004 208.34 75.6596 208.773 75.6596 209.283V214H73.8412V209.27C73.8412 208.928 73.7911 208.659 73.6909 208.463C73.5906 208.262 73.447 208.119 73.2602 208.032C73.0779 207.946 72.8523 207.902 72.5834 207.902C72.2918 207.902 72.0411 207.959 71.8315 208.073C71.6218 208.183 71.4487 208.335 71.312 208.531C71.1798 208.727 71.0795 208.953 71.0112 209.208C70.9474 209.463 70.9155 209.739 70.9155 210.035ZM81.9757 204.047H83.6027L86.3234 211.539L89.0373 204.047H90.6711L86.9728 214H85.6671L81.9757 204.047ZM81.1554 204.047H82.7482L83.0353 210.931V214H81.1554V204.047ZM89.8918 204.047H91.4914V214H89.6115V210.931L89.8918 204.047ZM96.731 214.137C96.1704 214.137 95.6668 214.046 95.2202 213.863C94.7736 213.681 94.3931 213.428 94.0786 213.104C93.7687 212.776 93.5295 212.396 93.3609 211.963C93.1968 211.525 93.1148 211.056 93.1148 210.555V210.281C93.1148 209.712 93.1968 209.194 93.3609 208.729C93.5249 208.26 93.7573 207.857 94.0581 207.52C94.3589 207.182 94.7189 206.923 95.1382 206.74C95.5575 206.558 96.02 206.467 96.5259 206.467C97.05 206.467 97.5126 206.556 97.9136 206.733C98.3146 206.907 98.6496 207.153 98.9185 207.472C99.1874 207.791 99.3902 208.174 99.5269 208.62C99.6636 209.062 99.732 209.552 99.732 210.09V210.849H93.9351V209.604H97.9546V209.468C97.9455 209.181 97.8908 208.919 97.7905 208.682C97.6903 208.44 97.5353 208.249 97.3257 208.107C97.1161 207.962 96.8449 207.889 96.5122 207.889C96.2433 207.889 96.0086 207.948 95.8081 208.066C95.6122 208.18 95.4481 208.344 95.3159 208.559C95.1883 208.768 95.0926 209.019 95.0288 209.311C94.965 209.602 94.9331 209.926 94.9331 210.281V210.555C94.9331 210.865 94.9741 211.152 95.0562 211.416C95.1428 211.68 95.2681 211.91 95.4321 212.106C95.6008 212.298 95.8013 212.448 96.0337 212.558C96.2707 212.662 96.5396 212.715 96.8404 212.715C97.2186 212.715 97.5604 212.642 97.8657 212.496C98.1756 212.346 98.4445 212.125 98.6724 211.833L99.5816 212.776C99.4266 213.004 99.217 213.223 98.9527 213.433C98.6929 213.642 98.3784 213.813 98.0093 213.945C97.6402 214.073 97.214 214.137 96.731 214.137ZM105.149 211.977C105.149 211.822 105.108 211.683 105.026 211.56C104.944 211.437 104.789 211.325 104.561 211.225C104.338 211.12 104.01 211.022 103.577 210.931C103.194 210.849 102.841 210.746 102.517 210.623C102.194 210.5 101.916 210.352 101.683 210.179C101.451 210.001 101.269 209.794 101.137 209.557C101.009 209.315 100.945 209.037 100.945 208.723C100.945 208.417 101.011 208.13 101.143 207.861C101.276 207.588 101.467 207.349 101.718 207.144C101.968 206.934 102.274 206.77 102.634 206.651C102.994 206.528 103.399 206.467 103.85 206.467C104.479 206.467 105.019 206.569 105.471 206.774C105.926 206.979 106.275 207.262 106.516 207.622C106.758 207.978 106.879 208.379 106.879 208.825H105.074C105.074 208.629 105.029 208.451 104.937 208.292C104.851 208.132 104.716 208.005 104.534 207.909C104.352 207.809 104.122 207.759 103.844 207.759C103.593 207.759 103.381 207.8 103.208 207.882C103.039 207.964 102.912 208.071 102.825 208.203C102.738 208.335 102.695 208.481 102.695 208.641C102.695 208.759 102.718 208.866 102.764 208.962C102.814 209.053 102.893 209.137 103.003 209.215C103.112 209.292 103.26 209.363 103.447 209.427C103.639 209.491 103.873 209.552 104.151 209.611C104.703 209.721 105.183 209.867 105.594 210.049C106.008 210.227 106.332 210.464 106.564 210.76C106.797 211.056 106.913 211.434 106.913 211.895C106.913 212.223 106.842 212.523 106.701 212.797C106.56 213.066 106.355 213.3 106.086 213.501C105.817 213.701 105.496 213.859 105.122 213.973C104.748 214.082 104.327 214.137 103.857 214.137C103.178 214.137 102.604 214.016 102.135 213.774C101.665 213.528 101.31 213.218 101.068 212.845C100.827 212.466 100.706 212.075 100.706 211.669H102.435C102.449 211.956 102.527 212.186 102.668 212.359C102.809 212.533 102.987 212.658 103.201 212.735C103.42 212.808 103.65 212.845 103.891 212.845C104.165 212.845 104.395 212.808 104.582 212.735C104.769 212.658 104.91 212.555 105.006 212.428C105.101 212.296 105.149 212.145 105.149 211.977ZM112.494 211.977C112.494 211.822 112.453 211.683 112.371 211.56C112.289 211.437 112.134 211.325 111.906 211.225C111.683 211.12 111.355 211.022 110.922 210.931C110.539 210.849 110.186 210.746 109.863 210.623C109.539 210.5 109.261 210.352 109.029 210.179C108.796 210.001 108.614 209.794 108.482 209.557C108.354 209.315 108.29 209.037 108.29 208.723C108.29 208.417 108.356 208.13 108.489 207.861C108.621 207.588 108.812 207.349 109.063 207.144C109.313 206.934 109.619 206.77 109.979 206.651C110.339 206.528 110.744 206.467 111.196 206.467C111.824 206.467 112.364 206.569 112.816 206.774C113.271 206.979 113.62 207.262 113.862 207.622C114.103 207.978 114.224 208.379 114.224 208.825H112.419C112.419 208.629 112.374 208.451 112.282 208.292C112.196 208.132 112.061 208.005 111.879 207.909C111.697 207.809 111.467 207.759 111.189 207.759C110.938 207.759 110.726 207.8 110.553 207.882C110.384 207.964 110.257 208.071 110.17 208.203C110.084 208.335 110.04 208.481 110.04 208.641C110.04 208.759 110.063 208.866 110.109 208.962C110.159 209.053 110.239 209.137 110.348 209.215C110.457 209.292 110.605 209.363 110.792 209.427C110.984 209.491 111.218 209.552 111.496 209.611C112.048 209.721 112.529 209.867 112.939 210.049C113.353 210.227 113.677 210.464 113.909 210.76C114.142 211.056 114.258 211.434 114.258 211.895C114.258 212.223 114.187 212.523 114.046 212.797C113.905 213.066 113.7 213.3 113.431 213.501C113.162 213.701 112.841 213.859 112.467 213.973C112.093 214.082 111.672 214.137 111.202 214.137C110.523 214.137 109.949 214.016 109.48 213.774C109.01 213.528 108.655 213.218 108.413 212.845C108.172 212.466 108.051 212.075 108.051 211.669H109.781C109.794 211.956 109.872 212.186 110.013 212.359C110.154 212.533 110.332 212.658 110.546 212.735C110.765 212.808 110.995 212.845 111.237 212.845C111.51 212.845 111.74 212.808 111.927 212.735C112.114 212.658 112.255 212.555 112.351 212.428C112.447 212.296 112.494 212.145 112.494 211.977ZM119.846 212.428V209.017C119.846 208.766 119.803 208.549 119.716 208.367C119.63 208.185 119.498 208.044 119.32 207.943C119.142 207.843 118.917 207.793 118.643 207.793C118.402 207.793 118.19 207.834 118.007 207.916C117.83 207.998 117.693 208.114 117.597 208.265C117.502 208.41 117.454 208.579 117.454 208.771H115.642C115.642 208.465 115.715 208.176 115.861 207.902C116.007 207.624 116.214 207.378 116.483 207.164C116.756 206.945 117.082 206.774 117.461 206.651C117.843 206.528 118.272 206.467 118.746 206.467C119.306 206.467 119.805 206.562 120.243 206.754C120.685 206.941 121.031 207.223 121.282 207.602C121.537 207.98 121.665 208.456 121.665 209.03V212.257C121.665 212.626 121.687 212.943 121.733 213.207C121.783 213.467 121.856 213.692 121.952 213.884V214H120.113C120.026 213.813 119.96 213.576 119.915 213.289C119.869 212.997 119.846 212.71 119.846 212.428ZM120.099 209.495L120.113 210.568H118.971C118.689 210.568 118.44 210.598 118.226 210.657C118.012 210.712 117.837 210.794 117.7 210.903C117.563 211.008 117.461 211.136 117.392 211.286C117.324 211.432 117.29 211.598 117.29 211.785C117.29 211.967 117.331 212.132 117.413 212.277C117.499 212.423 117.622 212.539 117.782 212.626C117.946 212.708 118.137 212.749 118.356 212.749C118.675 212.749 118.953 212.685 119.19 212.558C119.427 212.425 119.612 212.266 119.744 212.079C119.876 211.892 119.947 211.715 119.956 211.546L120.475 212.325C120.411 212.512 120.316 212.71 120.188 212.92C120.06 213.13 119.896 213.326 119.696 213.508C119.495 213.69 119.254 213.84 118.971 213.959C118.689 214.077 118.361 214.137 117.987 214.137C117.508 214.137 117.08 214.041 116.702 213.85C116.324 213.658 116.025 213.396 115.806 213.063C115.588 212.731 115.478 212.353 115.478 211.929C115.478 211.537 115.551 211.19 115.697 210.89C115.843 210.589 116.059 210.336 116.346 210.131C116.633 209.921 116.989 209.764 117.413 209.659C117.841 209.55 118.331 209.495 118.882 209.495H120.099ZM128.135 206.604H129.775V213.774C129.775 214.444 129.63 215.012 129.338 215.477C129.051 215.946 128.647 216.301 128.128 216.543C127.608 216.789 127.005 216.912 126.316 216.912C126.02 216.912 125.699 216.871 125.353 216.789C125.011 216.707 124.68 216.577 124.361 216.399C124.047 216.226 123.785 216.001 123.575 215.723L124.389 214.656C124.635 214.943 124.913 215.16 125.223 215.306C125.533 215.456 125.867 215.531 126.228 215.531C126.592 215.531 126.902 215.463 127.157 215.326C127.417 215.194 127.615 214.998 127.752 214.738C127.893 214.483 127.964 214.169 127.964 213.795V208.292L128.135 206.604ZM123.138 210.391V210.247C123.138 209.682 123.206 209.169 123.343 208.709C123.479 208.244 123.675 207.845 123.931 207.513C124.19 207.18 124.503 206.923 124.867 206.74C125.236 206.558 125.651 206.467 126.111 206.467C126.599 206.467 127.009 206.556 127.342 206.733C127.679 206.911 127.957 207.164 128.176 207.492C128.399 207.82 128.572 208.21 128.695 208.661C128.823 209.108 128.921 209.6 128.989 210.138V210.527C128.925 211.051 128.823 211.532 128.682 211.97C128.545 212.407 128.363 212.79 128.135 213.118C127.907 213.442 127.624 213.692 127.287 213.87C126.95 214.048 126.553 214.137 126.098 214.137C125.642 214.137 125.232 214.043 124.867 213.856C124.503 213.67 124.19 213.408 123.931 213.07C123.675 212.733 123.479 212.337 123.343 211.881C123.206 211.425 123.138 210.928 123.138 210.391ZM124.942 210.247V210.391C124.942 210.71 124.974 211.008 125.038 211.286C125.102 211.564 125.2 211.81 125.332 212.024C125.464 212.234 125.63 212.398 125.831 212.517C126.032 212.635 126.271 212.694 126.549 212.694C126.922 212.694 127.228 212.617 127.465 212.462C127.706 212.302 127.889 212.086 128.012 211.812C128.139 211.535 128.221 211.222 128.258 210.876V209.803C128.235 209.529 128.185 209.276 128.107 209.044C128.034 208.812 127.932 208.611 127.8 208.442C127.668 208.274 127.499 208.142 127.294 208.046C127.089 207.95 126.845 207.902 126.562 207.902C126.289 207.902 126.05 207.964 125.845 208.087C125.64 208.205 125.471 208.372 125.339 208.586C125.207 208.8 125.106 209.049 125.038 209.331C124.974 209.614 124.942 209.919 124.942 210.247ZM134.865 214.137C134.304 214.137 133.8 214.046 133.354 213.863C132.907 213.681 132.527 213.428 132.212 213.104C131.902 212.776 131.663 212.396 131.494 211.963C131.33 211.525 131.248 211.056 131.248 210.555V210.281C131.248 209.712 131.33 209.194 131.494 208.729C131.659 208.26 131.891 207.857 132.192 207.52C132.493 207.182 132.853 206.923 133.272 206.74C133.691 206.558 134.154 206.467 134.659 206.467C135.184 206.467 135.646 206.556 136.047 206.733C136.448 206.907 136.783 207.153 137.052 207.472C137.321 207.791 137.524 208.174 137.66 208.62C137.797 209.062 137.866 209.552 137.866 210.09V210.849H132.069V209.604H136.088V209.468C136.079 209.181 136.024 208.919 135.924 208.682C135.824 208.44 135.669 208.249 135.459 208.107C135.25 207.962 134.979 207.889 134.646 207.889C134.377 207.889 134.142 207.948 133.942 208.066C133.746 208.18 133.582 208.344 133.45 208.559C133.322 208.768 133.226 209.019 133.162 209.311C133.099 209.602 133.067 209.926 133.067 210.281V210.555C133.067 210.865 133.108 211.152 133.19 211.416C133.276 211.68 133.402 211.91 133.566 212.106C133.734 212.298 133.935 212.448 134.167 212.558C134.404 212.662 134.673 212.715 134.974 212.715C135.352 212.715 135.694 212.642 135.999 212.496C136.309 212.346 136.578 212.125 136.806 211.833L137.715 212.776C137.56 213.004 137.351 213.223 137.086 213.433C136.826 213.642 136.512 213.813 136.143 213.945C135.774 214.073 135.348 214.137 134.865 214.137ZM139.257 213.118C139.257 212.845 139.35 212.615 139.537 212.428C139.724 212.241 139.977 212.147 140.296 212.147C140.615 212.147 140.868 212.241 141.054 212.428C141.241 212.615 141.335 212.845 141.335 213.118C141.335 213.387 141.241 213.615 141.054 213.802C140.868 213.984 140.615 214.075 140.296 214.075C139.977 214.075 139.724 213.984 139.537 213.802C139.35 213.615 139.257 213.387 139.257 213.118ZM139.263 207.383C139.263 207.109 139.357 206.879 139.544 206.692C139.73 206.506 139.983 206.412 140.302 206.412C140.621 206.412 140.874 206.506 141.061 206.692C141.248 206.879 141.341 207.109 141.341 207.383C141.341 207.652 141.248 207.88 141.061 208.066C140.874 208.249 140.621 208.34 140.302 208.34C139.983 208.34 139.73 208.249 139.544 208.066C139.357 207.88 139.263 207.652 139.263 207.383Z" fill="#3F3838"/>
<path d="M46.833 244.047V254H45.5342V244.047H46.833ZM50.0322 244.047V245.127H42.3418V244.047H50.0322ZM52.722 243.5V254H51.4574V243.5H52.722ZM52.4213 250.021L51.8949 250.001C51.8994 249.495 51.9746 249.028 52.1205 248.6C52.2663 248.167 52.4714 247.791 52.7357 247.472C53 247.153 53.3145 246.907 53.6791 246.733C54.0482 246.556 54.4561 246.467 54.9027 246.467C55.2673 246.467 55.5954 246.517 55.8871 246.617C56.1787 246.713 56.4271 246.868 56.6322 247.082C56.8418 247.296 57.0013 247.574 57.1107 247.916C57.2201 248.253 57.2748 248.666 57.2748 249.153V254H56.0033V249.14C56.0033 248.752 55.9463 248.442 55.8324 248.21C55.7185 247.973 55.5521 247.802 55.3334 247.697C55.1146 247.588 54.8457 247.533 54.5267 247.533C54.2123 247.533 53.9252 247.599 53.6654 247.731C53.4102 247.864 53.1892 248.046 53.0023 248.278C52.82 248.511 52.6765 248.777 52.5716 249.078C52.4714 249.374 52.4213 249.689 52.4213 250.021ZM60.6823 246.604V254H59.4109V246.604H60.6823ZM59.3152 244.642C59.3152 244.437 59.3767 244.263 59.4997 244.122C59.6273 243.981 59.8142 243.91 60.0603 243.91C60.3018 243.91 60.4864 243.981 60.614 244.122C60.7461 244.263 60.8122 244.437 60.8122 244.642C60.8122 244.838 60.7461 245.006 60.614 245.147C60.4864 245.284 60.3018 245.353 60.0603 245.353C59.8142 245.353 59.6273 245.284 59.4997 245.147C59.3767 245.006 59.3152 244.838 59.3152 244.642ZM67.1593 252.038C67.1593 251.856 67.1182 251.687 67.0362 251.532C66.9587 251.373 66.797 251.229 66.5509 251.102C66.3093 250.969 65.9447 250.855 65.4571 250.76C65.047 250.673 64.6755 250.571 64.3429 250.452C64.0147 250.334 63.7345 250.19 63.502 250.021C63.2742 249.853 63.0987 249.655 62.9757 249.427C62.8526 249.199 62.7911 248.932 62.7911 248.627C62.7911 248.335 62.8549 248.06 62.9825 247.8C63.1147 247.54 63.2992 247.31 63.5362 247.109C63.7777 246.909 64.0671 246.752 64.4044 246.638C64.7416 246.524 65.1176 246.467 65.5323 246.467C66.1248 246.467 66.6306 246.572 67.0499 246.781C67.4692 246.991 67.7904 247.271 68.0138 247.622C68.2371 247.968 68.3487 248.354 68.3487 248.777H67.0841C67.0841 248.572 67.0225 248.374 66.8995 248.183C66.781 247.987 66.6055 247.825 66.3731 247.697C66.1453 247.57 65.865 247.506 65.5323 247.506C65.1814 247.506 64.8966 247.561 64.6778 247.67C64.4636 247.775 64.3064 247.909 64.2061 248.073C64.1104 248.237 64.0626 248.41 64.0626 248.593C64.0626 248.729 64.0854 248.853 64.1309 248.962C64.1811 249.067 64.2677 249.165 64.3907 249.256C64.5138 249.342 64.6869 249.424 64.9102 249.502C65.1335 249.579 65.4184 249.657 65.7647 249.734C66.3708 249.871 66.8699 250.035 67.2618 250.227C67.6537 250.418 67.9454 250.653 68.1368 250.931C68.3282 251.209 68.4239 251.546 68.4239 251.942C68.4239 252.266 68.3555 252.562 68.2188 252.831C68.0867 253.1 67.893 253.332 67.6378 253.528C67.3871 253.72 67.0863 253.87 66.7354 253.979C66.3891 254.084 65.9994 254.137 65.5665 254.137C64.9148 254.137 64.3634 254.021 63.9122 253.788C63.461 253.556 63.1192 253.255 62.8868 252.886C62.6544 252.517 62.5382 252.127 62.5382 251.717H63.8096C63.8279 252.063 63.9281 252.339 64.1104 252.544C64.2927 252.744 64.516 252.888 64.7804 252.975C65.0447 253.057 65.3067 253.098 65.5665 253.098C65.9128 253.098 66.2022 253.052 66.4346 252.961C66.6716 252.87 66.8516 252.744 66.9747 252.585C67.0977 252.425 67.1593 252.243 67.1593 252.038ZM75.2117 246.604V254H73.9402V246.604H75.2117ZM73.8445 244.642C73.8445 244.437 73.9061 244.263 74.0291 244.122C74.1567 243.981 74.3436 243.91 74.5896 243.91C74.8312 243.91 75.0158 243.981 75.1434 244.122C75.2755 244.263 75.3416 244.437 75.3416 244.642C75.3416 244.838 75.2755 245.006 75.1434 245.147C75.0158 245.284 74.8312 245.353 74.5896 245.353C74.3436 245.353 74.1567 245.284 74.0291 245.147C73.9061 245.006 73.8445 244.838 73.8445 244.642ZM81.6886 252.038C81.6886 251.856 81.6476 251.687 81.5656 251.532C81.4881 251.373 81.3263 251.229 81.0802 251.102C80.8387 250.969 80.4741 250.855 79.9865 250.76C79.5763 250.673 79.2049 250.571 78.8722 250.452C78.5441 250.334 78.2638 250.19 78.0314 250.021C77.8035 249.853 77.6281 249.655 77.505 249.427C77.382 249.199 77.3205 248.932 77.3205 248.627C77.3205 248.335 77.3843 248.06 77.5119 247.8C77.644 247.54 77.8286 247.31 78.0656 247.109C78.3071 246.909 78.5965 246.752 78.9338 246.638C79.271 246.524 79.647 246.467 80.0617 246.467C80.6541 246.467 81.16 246.572 81.5793 246.781C81.9985 246.991 82.3198 247.271 82.5431 247.622C82.7664 247.968 82.8781 248.354 82.8781 248.777H81.6134C81.6134 248.572 81.5519 248.374 81.4289 248.183C81.3104 247.987 81.1349 247.825 80.9025 247.697C80.6746 247.57 80.3944 247.506 80.0617 247.506C79.7108 247.506 79.4259 247.561 79.2072 247.67C78.993 247.775 78.8358 247.909 78.7355 248.073C78.6398 248.237 78.592 248.41 78.592 248.593C78.592 248.729 78.6147 248.853 78.6603 248.962C78.7104 249.067 78.797 249.165 78.9201 249.256C79.0431 249.342 79.2163 249.424 79.4396 249.502C79.6629 249.579 79.9477 249.657 80.2941 249.734C80.9002 249.871 81.3992 250.035 81.7912 250.227C82.1831 250.418 82.4748 250.653 82.6662 250.931C82.8576 251.209 82.9533 251.546 82.9533 251.942C82.9533 252.266 82.8849 252.562 82.7482 252.831C82.616 253.1 82.4224 253.332 82.1671 253.528C81.9165 253.72 81.6157 253.87 81.2648 253.979C80.9185 254.084 80.5288 254.137 80.0959 254.137C79.4442 254.137 78.8927 254.021 78.4416 253.788C77.9904 253.556 77.6486 253.255 77.4162 252.886C77.1838 252.517 77.0675 252.127 77.0675 251.717H78.339C78.3573 252.063 78.4575 252.339 78.6398 252.544C78.8221 252.744 79.0454 252.888 79.3097 252.975C79.574 253.057 79.8361 253.098 80.0959 253.098C80.4422 253.098 80.7316 253.052 80.964 252.961C81.201 252.87 81.381 252.744 81.5041 252.585C81.6271 252.425 81.6886 252.243 81.6886 252.038ZM90.2401 252.688L92.1405 246.604H92.9745L92.8104 247.813L90.8759 254H90.0624L90.2401 252.688ZM88.9618 246.604L90.5819 252.756L90.6981 254H89.8436L87.6971 246.604H88.9618ZM94.7929 252.708L96.3378 246.604H97.5956L95.4491 254H94.6014L94.7929 252.708ZM93.1591 246.604L95.0184 252.585L95.2304 254H94.4237L92.4345 247.8L92.2704 246.604H93.1591ZM100.299 243.5V254H99.0344V243.5H100.299ZM99.9983 250.021L99.4719 250.001C99.4765 249.495 99.5517 249.028 99.6975 248.6C99.8433 248.167 100.048 247.791 100.313 247.472C100.577 247.153 100.892 246.907 101.256 246.733C101.625 246.556 102.033 246.467 102.48 246.467C102.844 246.467 103.172 246.517 103.464 246.617C103.756 246.713 104.004 246.868 104.209 247.082C104.419 247.296 104.578 247.574 104.688 247.916C104.797 248.253 104.852 248.666 104.852 249.153V254H103.58V249.14C103.58 248.752 103.523 248.442 103.409 248.21C103.295 247.973 103.129 247.802 102.91 247.697C102.692 247.588 102.423 247.533 102.104 247.533C101.789 247.533 101.502 247.599 101.242 247.731C100.987 247.864 100.766 248.046 100.579 248.278C100.397 248.511 100.253 248.777 100.149 249.078C100.048 249.374 99.9983 249.689 99.9983 250.021ZM109.955 254.137C109.44 254.137 108.973 254.05 108.553 253.877C108.139 253.699 107.781 253.451 107.48 253.132C107.184 252.813 106.956 252.435 106.796 251.997C106.637 251.56 106.557 251.081 106.557 250.562V250.274C106.557 249.673 106.646 249.137 106.824 248.668C107.002 248.194 107.243 247.793 107.548 247.465C107.854 247.137 108.2 246.888 108.588 246.72C108.975 246.551 109.376 246.467 109.791 246.467C110.319 246.467 110.775 246.558 111.158 246.74C111.545 246.923 111.862 247.178 112.108 247.506C112.354 247.829 112.536 248.212 112.655 248.654C112.773 249.092 112.833 249.57 112.833 250.09V250.657H107.309V249.625H111.568V249.529C111.55 249.201 111.481 248.882 111.363 248.572C111.249 248.262 111.067 248.007 110.816 247.807C110.565 247.606 110.224 247.506 109.791 247.506C109.504 247.506 109.239 247.567 108.998 247.69C108.756 247.809 108.549 247.987 108.376 248.224C108.202 248.461 108.068 248.75 107.972 249.092C107.877 249.434 107.829 249.828 107.829 250.274V250.562C107.829 250.912 107.877 251.243 107.972 251.553C108.073 251.858 108.216 252.127 108.403 252.359C108.594 252.592 108.824 252.774 109.093 252.906C109.367 253.038 109.677 253.104 110.023 253.104C110.47 253.104 110.848 253.013 111.158 252.831C111.468 252.649 111.739 252.405 111.971 252.1L112.737 252.708C112.577 252.95 112.375 253.18 112.129 253.398C111.882 253.617 111.579 253.795 111.219 253.932C110.864 254.068 110.442 254.137 109.955 254.137ZM115.714 247.766V254H114.449V246.604H115.68L115.714 247.766ZM118.024 246.562L118.018 247.738C117.913 247.715 117.812 247.702 117.717 247.697C117.626 247.688 117.521 247.684 117.402 247.684C117.111 247.684 116.853 247.729 116.63 247.82C116.407 247.911 116.217 248.039 116.062 248.203C115.908 248.367 115.784 248.563 115.693 248.791C115.607 249.014 115.55 249.26 115.522 249.529L115.167 249.734C115.167 249.288 115.21 248.868 115.297 248.477C115.388 248.085 115.527 247.738 115.714 247.438C115.901 247.132 116.138 246.895 116.425 246.727C116.716 246.553 117.063 246.467 117.464 246.467C117.555 246.467 117.66 246.478 117.778 246.501C117.897 246.519 117.979 246.54 118.024 246.562ZM122.266 254.137C121.751 254.137 121.284 254.05 120.865 253.877C120.45 253.699 120.092 253.451 119.791 253.132C119.495 252.813 119.267 252.435 119.108 251.997C118.948 251.56 118.868 251.081 118.868 250.562V250.274C118.868 249.673 118.957 249.137 119.135 248.668C119.313 248.194 119.554 247.793 119.86 247.465C120.165 247.137 120.511 246.888 120.899 246.72C121.286 246.551 121.687 246.467 122.102 246.467C122.631 246.467 123.086 246.558 123.469 246.74C123.856 246.923 124.173 247.178 124.419 247.506C124.665 247.829 124.848 248.212 124.966 248.654C125.085 249.092 125.144 249.57 125.144 250.09V250.657H119.62V249.625H123.879V249.529C123.861 249.201 123.793 248.882 123.674 248.572C123.56 248.262 123.378 248.007 123.127 247.807C122.877 247.606 122.535 247.506 122.102 247.506C121.815 247.506 121.55 247.567 121.309 247.69C121.067 247.809 120.86 247.987 120.687 248.224C120.514 248.461 120.379 248.75 120.284 249.092C120.188 249.434 120.14 249.828 120.14 250.274V250.562C120.14 250.912 120.188 251.243 120.284 251.553C120.384 251.858 120.527 252.127 120.714 252.359C120.906 252.592 121.136 252.774 121.405 252.906C121.678 253.038 121.988 253.104 122.334 253.104C122.781 253.104 123.159 253.013 123.469 252.831C123.779 252.649 124.05 252.405 124.283 252.1L125.048 252.708C124.889 252.95 124.686 253.18 124.44 253.398C124.194 253.617 123.891 253.795 123.531 253.932C123.175 254.068 122.754 254.137 122.266 254.137ZM132.451 253.234L134.509 246.604H135.862L132.896 255.142C132.827 255.324 132.736 255.52 132.622 255.729C132.513 255.944 132.371 256.146 132.198 256.338C132.025 256.529 131.815 256.684 131.569 256.803C131.328 256.926 131.038 256.987 130.701 256.987C130.601 256.987 130.473 256.974 130.318 256.946C130.163 256.919 130.054 256.896 129.99 256.878L129.983 255.853C130.02 255.857 130.077 255.862 130.154 255.866C130.236 255.875 130.293 255.88 130.325 255.88C130.612 255.88 130.856 255.841 131.057 255.764C131.257 255.691 131.426 255.565 131.563 255.388C131.704 255.215 131.825 254.975 131.925 254.67L132.451 253.234ZM130.94 246.604L132.861 252.346L133.189 253.679L132.28 254.144L129.56 246.604H130.94ZM136.7 250.384V250.227C136.7 249.693 136.777 249.199 136.932 248.743C137.087 248.283 137.31 247.884 137.602 247.547C137.894 247.205 138.247 246.941 138.662 246.754C139.076 246.562 139.541 246.467 140.056 246.467C140.576 246.467 141.043 246.562 141.457 246.754C141.877 246.941 142.232 247.205 142.524 247.547C142.82 247.884 143.046 248.283 143.201 248.743C143.356 249.199 143.433 249.693 143.433 250.227V250.384C143.433 250.917 143.356 251.411 143.201 251.867C143.046 252.323 142.82 252.722 142.524 253.063C142.232 253.401 141.879 253.665 141.464 253.856C141.054 254.043 140.589 254.137 140.07 254.137C139.55 254.137 139.083 254.043 138.668 253.856C138.254 253.665 137.898 253.401 137.602 253.063C137.31 252.722 137.087 252.323 136.932 251.867C136.777 251.411 136.7 250.917 136.7 250.384ZM137.964 250.227V250.384C137.964 250.753 138.008 251.102 138.094 251.43C138.181 251.753 138.311 252.04 138.484 252.291C138.662 252.542 138.883 252.74 139.147 252.886C139.411 253.027 139.719 253.098 140.07 253.098C140.416 253.098 140.719 253.027 140.979 252.886C141.243 252.74 141.462 252.542 141.635 252.291C141.808 252.04 141.938 251.753 142.025 251.43C142.116 251.102 142.162 250.753 142.162 250.384V250.227C142.162 249.862 142.116 249.518 142.025 249.194C141.938 248.866 141.806 248.577 141.628 248.326C141.455 248.071 141.236 247.87 140.972 247.725C140.712 247.579 140.407 247.506 140.056 247.506C139.71 247.506 139.404 247.579 139.14 247.725C138.88 247.87 138.662 248.071 138.484 248.326C138.311 248.577 138.181 248.866 138.094 249.194C138.008 249.518 137.964 249.862 137.964 250.227ZM149.684 252.291V246.604H150.956V254H149.746L149.684 252.291ZM149.924 250.732L150.45 250.719C150.45 251.211 150.398 251.667 150.293 252.086C150.192 252.501 150.028 252.861 149.801 253.166C149.573 253.471 149.274 253.711 148.905 253.884C148.536 254.052 148.087 254.137 147.558 254.137C147.198 254.137 146.868 254.084 146.567 253.979C146.271 253.875 146.016 253.713 145.802 253.494C145.587 253.275 145.421 252.991 145.302 252.64C145.189 252.289 145.132 251.867 145.132 251.375V246.604H146.396V251.389C146.396 251.721 146.433 251.997 146.506 252.216C146.583 252.43 146.686 252.601 146.813 252.729C146.945 252.852 147.091 252.938 147.251 252.988C147.415 253.038 147.583 253.063 147.757 253.063C148.294 253.063 148.72 252.961 149.035 252.756C149.349 252.546 149.575 252.266 149.712 251.915C149.853 251.56 149.924 251.165 149.924 250.732ZM154.288 247.766V254H153.024V246.604H154.254L154.288 247.766ZM156.599 246.562L156.592 247.738C156.487 247.715 156.387 247.702 156.291 247.697C156.2 247.688 156.095 247.684 155.977 247.684C155.685 247.684 155.428 247.729 155.204 247.82C154.981 247.911 154.792 248.039 154.637 248.203C154.482 248.367 154.359 248.563 154.268 248.791C154.181 249.014 154.124 249.26 154.097 249.529L153.741 249.734C153.741 249.288 153.785 248.868 153.871 248.477C153.962 248.085 154.101 247.738 154.288 247.438C154.475 247.132 154.712 246.895 154.999 246.727C155.291 246.553 155.637 246.467 156.038 246.467C156.129 246.467 156.234 246.478 156.353 246.501C156.471 246.519 156.553 246.54 156.599 246.562ZM162.778 248.073V254H161.507V246.604H162.71L162.778 248.073ZM162.518 250.021L161.931 250.001C161.935 249.495 162.001 249.028 162.129 248.6C162.256 248.167 162.445 247.791 162.696 247.472C162.947 247.153 163.259 246.907 163.633 246.733C164.006 246.556 164.439 246.467 164.931 246.467C165.278 246.467 165.597 246.517 165.889 246.617C166.18 246.713 166.433 246.866 166.647 247.075C166.862 247.285 167.028 247.554 167.146 247.882C167.265 248.21 167.324 248.606 167.324 249.071V254H166.059V249.133C166.059 248.745 165.993 248.436 165.861 248.203C165.734 247.971 165.551 247.802 165.314 247.697C165.077 247.588 164.799 247.533 164.48 247.533C164.107 247.533 163.794 247.599 163.544 247.731C163.293 247.864 163.093 248.046 162.942 248.278C162.792 248.511 162.682 248.777 162.614 249.078C162.55 249.374 162.518 249.689 162.518 250.021ZM167.31 249.324L166.463 249.584C166.467 249.178 166.533 248.789 166.661 248.415C166.793 248.041 166.982 247.709 167.228 247.417C167.479 247.125 167.787 246.895 168.151 246.727C168.516 246.553 168.933 246.467 169.402 246.467C169.799 246.467 170.15 246.519 170.455 246.624C170.765 246.729 171.025 246.891 171.234 247.109C171.448 247.324 171.61 247.599 171.72 247.937C171.829 248.274 171.884 248.675 171.884 249.14V254H170.612V249.126C170.612 248.711 170.546 248.39 170.414 248.162C170.286 247.93 170.104 247.768 169.867 247.677C169.635 247.581 169.357 247.533 169.033 247.533C168.755 247.533 168.509 247.581 168.295 247.677C168.081 247.772 167.901 247.905 167.755 248.073C167.609 248.237 167.497 248.426 167.42 248.641C167.347 248.855 167.31 249.083 167.31 249.324ZM177.007 254.137C176.492 254.137 176.025 254.05 175.606 253.877C175.191 253.699 174.833 253.451 174.532 253.132C174.236 252.813 174.008 252.435 173.849 251.997C173.689 251.56 173.61 251.081 173.61 250.562V250.274C173.61 249.673 173.698 249.137 173.876 248.668C174.054 248.194 174.295 247.793 174.601 247.465C174.906 247.137 175.252 246.888 175.64 246.72C176.027 246.551 176.428 246.467 176.843 246.467C177.372 246.467 177.827 246.558 178.21 246.74C178.598 246.923 178.914 247.178 179.16 247.506C179.406 247.829 179.589 248.212 179.707 248.654C179.826 249.092 179.885 249.57 179.885 250.09V250.657H174.362V249.625H178.62V249.529C178.602 249.201 178.534 248.882 178.415 248.572C178.301 248.262 178.119 248.007 177.868 247.807C177.618 247.606 177.276 247.506 176.843 247.506C176.556 247.506 176.292 247.567 176.05 247.69C175.808 247.809 175.601 247.987 175.428 248.224C175.255 248.461 175.12 248.75 175.025 249.092C174.929 249.434 174.881 249.828 174.881 250.274V250.562C174.881 250.912 174.929 251.243 175.025 251.553C175.125 251.858 175.268 252.127 175.455 252.359C175.647 252.592 175.877 252.774 176.146 252.906C176.419 253.038 176.729 253.104 177.075 253.104C177.522 253.104 177.9 253.013 178.21 252.831C178.52 252.649 178.791 252.405 179.024 252.1L179.789 252.708C179.63 252.95 179.427 253.18 179.181 253.398C178.935 253.617 178.632 253.795 178.272 253.932C177.916 254.068 177.495 254.137 177.007 254.137ZM185.808 252.038C185.808 251.856 185.767 251.687 185.685 251.532C185.608 251.373 185.446 251.229 185.2 251.102C184.958 250.969 184.594 250.855 184.106 250.76C183.696 250.673 183.324 250.571 182.992 250.452C182.664 250.334 182.383 250.19 182.151 250.021C181.923 249.853 181.748 249.655 181.625 249.427C181.502 249.199 181.44 248.932 181.44 248.627C181.44 248.335 181.504 248.06 181.631 247.8C181.764 247.54 181.948 247.31 182.185 247.109C182.427 246.909 182.716 246.752 183.053 246.638C183.391 246.524 183.766 246.467 184.181 246.467C184.774 246.467 185.28 246.572 185.699 246.781C186.118 246.991 186.439 247.271 186.663 247.622C186.886 247.968 186.998 248.354 186.998 248.777H185.733C185.733 248.572 185.671 248.374 185.548 248.183C185.43 247.987 185.254 247.825 185.022 247.697C184.794 247.57 184.514 247.506 184.181 247.506C183.83 247.506 183.545 247.561 183.327 247.67C183.113 247.775 182.955 247.909 182.855 248.073C182.759 248.237 182.711 248.41 182.711 248.593C182.711 248.729 182.734 248.853 182.78 248.962C182.83 249.067 182.917 249.165 183.04 249.256C183.163 249.342 183.336 249.424 183.559 249.502C183.782 249.579 184.067 249.657 184.414 249.734C185.02 249.871 185.519 250.035 185.911 250.227C186.303 250.418 186.594 250.653 186.786 250.931C186.977 251.209 187.073 251.546 187.073 251.942C187.073 252.266 187.004 252.562 186.868 252.831C186.736 253.1 186.542 253.332 186.287 253.528C186.036 253.72 185.735 253.87 185.384 253.979C185.038 254.084 184.648 254.137 184.215 254.137C183.564 254.137 183.012 254.021 182.561 253.788C182.11 253.556 181.768 253.255 181.536 252.886C181.303 252.517 181.187 252.127 181.187 251.717H182.459C182.477 252.063 182.577 252.339 182.759 252.544C182.942 252.744 183.165 252.888 183.429 252.975C183.694 253.057 183.956 253.098 184.215 253.098C184.562 253.098 184.851 253.052 185.084 252.961C185.321 252.87 185.501 252.744 185.624 252.585C185.747 252.425 185.808 252.243 185.808 252.038ZM193.181 252.038C193.181 251.856 193.14 251.687 193.058 251.532C192.98 251.373 192.818 251.229 192.572 251.102C192.331 250.969 191.966 250.855 191.478 250.76C191.068 250.673 190.697 250.571 190.364 250.452C190.036 250.334 189.756 250.19 189.523 250.021C189.295 249.853 189.12 249.655 188.997 249.427C188.874 249.199 188.812 248.932 188.812 248.627C188.812 248.335 188.876 248.06 189.004 247.8C189.136 247.54 189.321 247.31 189.558 247.109C189.799 246.909 190.088 246.752 190.426 246.638C190.763 246.524 191.139 246.467 191.554 246.467C192.146 246.467 192.652 246.572 193.071 246.781C193.49 246.991 193.812 247.271 194.035 247.622C194.258 247.968 194.37 248.354 194.37 248.777H193.105C193.105 248.572 193.044 248.374 192.921 248.183C192.802 247.987 192.627 247.825 192.394 247.697C192.167 247.57 191.886 247.506 191.554 247.506C191.203 247.506 190.918 247.561 190.699 247.67C190.485 247.775 190.328 247.909 190.227 248.073C190.132 248.237 190.084 248.41 190.084 248.593C190.084 248.729 190.107 248.853 190.152 248.962C190.202 249.067 190.289 249.165 190.412 249.256C190.535 249.342 190.708 249.424 190.932 249.502C191.155 249.579 191.44 249.657 191.786 249.734C192.392 249.871 192.891 250.035 193.283 250.227C193.675 250.418 193.967 250.653 194.158 250.931C194.35 251.209 194.445 251.546 194.445 251.942C194.445 252.266 194.377 252.562 194.24 252.831C194.108 253.1 193.914 253.332 193.659 253.528C193.408 253.72 193.108 253.87 192.757 253.979C192.41 254.084 192.021 254.137 191.588 254.137C190.936 254.137 190.385 254.021 189.934 253.788C189.482 253.556 189.141 253.255 188.908 252.886C188.676 252.517 188.559 252.127 188.559 251.717H189.831C189.849 252.063 189.949 252.339 190.132 252.544C190.314 252.744 190.537 252.888 190.802 252.975C191.066 253.057 191.328 253.098 191.588 253.098C191.934 253.098 192.224 253.052 192.456 252.961C192.693 252.87 192.873 252.744 192.996 252.585C193.119 252.425 193.181 252.243 193.181 252.038ZM200.608 252.735V248.928C200.608 248.636 200.548 248.383 200.43 248.169C200.316 247.95 200.143 247.782 199.91 247.663C199.678 247.545 199.391 247.485 199.049 247.485C198.73 247.485 198.45 247.54 198.208 247.649C197.971 247.759 197.784 247.902 197.648 248.08C197.516 248.258 197.449 248.449 197.449 248.654H196.185C196.185 248.39 196.253 248.128 196.39 247.868C196.527 247.608 196.723 247.374 196.978 247.164C197.238 246.95 197.547 246.781 197.908 246.658C198.272 246.531 198.678 246.467 199.124 246.467C199.662 246.467 200.136 246.558 200.546 246.74C200.961 246.923 201.284 247.198 201.517 247.567C201.754 247.932 201.872 248.39 201.872 248.941V252.387C201.872 252.633 201.893 252.895 201.934 253.173C201.979 253.451 202.046 253.69 202.132 253.891V254H200.813C200.749 253.854 200.699 253.66 200.662 253.419C200.626 253.173 200.608 252.945 200.608 252.735ZM200.826 249.516L200.84 250.404H199.562C199.202 250.404 198.88 250.434 198.598 250.493C198.315 250.548 198.078 250.632 197.887 250.746C197.696 250.86 197.55 251.004 197.449 251.177C197.349 251.345 197.299 251.544 197.299 251.771C197.299 252.004 197.352 252.216 197.456 252.407C197.561 252.599 197.718 252.751 197.928 252.865C198.142 252.975 198.404 253.029 198.714 253.029C199.102 253.029 199.443 252.947 199.74 252.783C200.036 252.619 200.27 252.419 200.444 252.182C200.621 251.945 200.717 251.715 200.731 251.491L201.271 252.1C201.239 252.291 201.152 252.503 201.011 252.735C200.87 252.968 200.681 253.191 200.444 253.405C200.211 253.615 199.933 253.79 199.61 253.932C199.291 254.068 198.931 254.137 198.53 254.137C198.028 254.137 197.588 254.039 197.21 253.843C196.837 253.647 196.545 253.385 196.335 253.057C196.13 252.724 196.028 252.353 196.028 251.942C196.028 251.546 196.105 251.197 196.26 250.896C196.415 250.591 196.638 250.338 196.93 250.138C197.222 249.933 197.573 249.778 197.983 249.673C198.393 249.568 198.851 249.516 199.357 249.516H200.826ZM208.794 246.604H209.942V253.843C209.942 254.494 209.81 255.05 209.546 255.511C209.281 255.971 208.912 256.32 208.438 256.557C207.969 256.798 207.426 256.919 206.811 256.919C206.556 256.919 206.255 256.878 205.909 256.796C205.567 256.718 205.23 256.584 204.897 256.393C204.569 256.206 204.293 255.953 204.07 255.634L204.733 254.882C205.043 255.256 205.367 255.515 205.704 255.661C206.046 255.807 206.383 255.88 206.715 255.88C207.117 255.88 207.463 255.805 207.755 255.654C208.046 255.504 208.272 255.281 208.431 254.984C208.595 254.693 208.677 254.333 208.677 253.904V248.23L208.794 246.604ZM203.701 250.384V250.24C203.701 249.675 203.767 249.162 203.899 248.702C204.036 248.237 204.229 247.839 204.48 247.506C204.735 247.173 205.043 246.918 205.403 246.74C205.763 246.558 206.169 246.467 206.62 246.467C207.085 246.467 207.49 246.549 207.837 246.713C208.187 246.872 208.484 247.107 208.725 247.417C208.971 247.722 209.165 248.091 209.306 248.524C209.448 248.957 209.546 249.447 209.6 249.994V250.623C209.55 251.165 209.452 251.653 209.306 252.086C209.165 252.519 208.971 252.888 208.725 253.193C208.484 253.499 208.187 253.733 207.837 253.897C207.486 254.057 207.075 254.137 206.606 254.137C206.164 254.137 205.763 254.043 205.403 253.856C205.048 253.67 204.742 253.408 204.487 253.07C204.232 252.733 204.036 252.337 203.899 251.881C203.767 251.421 203.701 250.922 203.701 250.384ZM204.965 250.24V250.384C204.965 250.753 205.002 251.099 205.075 251.423C205.152 251.746 205.269 252.031 205.423 252.277C205.583 252.523 205.786 252.717 206.032 252.858C206.278 252.995 206.572 253.063 206.914 253.063C207.333 253.063 207.679 252.975 207.953 252.797C208.226 252.619 208.443 252.384 208.602 252.093C208.766 251.801 208.894 251.484 208.985 251.143V249.495C208.935 249.244 208.857 249.003 208.753 248.771C208.652 248.534 208.52 248.324 208.356 248.142C208.197 247.955 207.998 247.807 207.761 247.697C207.524 247.588 207.246 247.533 206.927 247.533C206.581 247.533 206.283 247.606 206.032 247.752C205.786 247.893 205.583 248.089 205.423 248.34C205.269 248.586 205.152 248.873 205.075 249.201C205.002 249.525 204.965 249.871 204.965 250.24ZM215.072 254.137C214.557 254.137 214.09 254.05 213.671 253.877C213.256 253.699 212.898 253.451 212.598 253.132C212.301 252.813 212.074 252.435 211.914 251.997C211.755 251.56 211.675 251.081 211.675 250.562V250.274C211.675 249.673 211.764 249.137 211.941 248.668C212.119 248.194 212.361 247.793 212.666 247.465C212.971 247.137 213.318 246.888 213.705 246.72C214.092 246.551 214.493 246.467 214.908 246.467C215.437 246.467 215.893 246.558 216.275 246.74C216.663 246.923 216.979 247.178 217.226 247.506C217.472 247.829 217.654 248.212 217.772 248.654C217.891 249.092 217.95 249.57 217.95 250.09V250.657H212.427V249.625H216.686V249.529C216.667 249.201 216.599 248.882 216.48 248.572C216.367 248.262 216.184 248.007 215.934 247.807C215.683 247.606 215.341 247.506 214.908 247.506C214.621 247.506 214.357 247.567 214.115 247.69C213.874 247.809 213.666 247.987 213.493 248.224C213.32 248.461 213.186 248.75 213.09 249.092C212.994 249.434 212.946 249.828 212.946 250.274V250.562C212.946 250.912 212.994 251.243 213.09 251.553C213.19 251.858 213.334 252.127 213.521 252.359C213.712 252.592 213.942 252.774 214.211 252.906C214.484 253.038 214.794 253.104 215.141 253.104C215.587 253.104 215.965 253.013 216.275 252.831C216.585 252.649 216.856 252.405 217.089 252.1L217.854 252.708C217.695 252.95 217.492 253.18 217.246 253.398C217 253.617 216.697 253.795 216.337 253.932C215.981 254.068 215.56 254.137 215.072 254.137ZM44.8369 272.688L46.7373 266.604H47.5713L47.4072 267.813L45.4727 274H44.6592L44.8369 272.688ZM43.5586 266.604L45.1787 272.756L45.2949 274H44.4404L42.2939 266.604H43.5586ZM49.3896 272.708L50.9346 266.604H52.1924L50.0459 274H49.1982L49.3896 272.708ZM47.7559 266.604L49.6152 272.585L49.8271 274H49.0205L47.0312 267.8L46.8672 266.604H47.7559ZM55.0052 266.604V274H53.7338V266.604H55.0052ZM53.638 264.642C53.638 264.437 53.6996 264.263 53.8226 264.122C53.9502 263.981 54.1371 263.91 54.3832 263.91C54.6247 263.91 54.8093 263.981 54.9369 264.122C55.069 264.263 55.1351 264.437 55.1351 264.642C55.1351 264.838 55.069 265.006 54.9369 265.147C54.8093 265.284 54.6247 265.353 54.3832 265.353C54.1371 265.353 53.9502 265.284 53.8226 265.147C53.6996 265.006 53.638 264.838 53.638 264.642ZM58.5495 263.5V274H57.278V263.5H58.5495ZM62.0938 263.5V274H60.8223V263.5H62.0938ZM67.8699 263.5H69.1414V272.564L69.032 274H67.8699V263.5ZM74.1385 270.24V270.384C74.1385 270.922 74.0747 271.421 73.9471 271.881C73.8195 272.337 73.6326 272.733 73.3865 273.07C73.1404 273.408 72.8396 273.67 72.4842 273.856C72.1287 274.043 71.7208 274.137 71.2605 274.137C70.7911 274.137 70.3787 274.057 70.0232 273.897C69.6723 273.733 69.3761 273.499 69.1346 273.193C68.893 272.888 68.6993 272.519 68.5535 272.086C68.4122 271.653 68.3143 271.165 68.2596 270.623V269.994C68.3143 269.447 68.4122 268.957 68.5535 268.524C68.6993 268.091 68.893 267.722 69.1346 267.417C69.3761 267.107 69.6723 266.872 70.0232 266.713C70.3742 266.549 70.782 266.467 71.2469 266.467C71.7117 266.467 72.1242 266.558 72.4842 266.74C72.8442 266.918 73.145 267.173 73.3865 267.506C73.6326 267.839 73.8195 268.237 73.9471 268.702C74.0747 269.162 74.1385 269.675 74.1385 270.24ZM72.867 270.384V270.24C72.867 269.871 72.8328 269.525 72.7645 269.201C72.6961 268.873 72.5867 268.586 72.4363 268.34C72.2859 268.089 72.0877 267.893 71.8416 267.752C71.5955 267.606 71.2924 267.533 70.9324 267.533C70.6134 267.533 70.3354 267.588 70.0984 267.697C69.866 267.807 69.6678 267.955 69.5037 268.142C69.3396 268.324 69.2052 268.534 69.1004 268.771C69.0001 269.003 68.9249 269.244 68.8748 269.495V271.143C68.9477 271.462 69.0662 271.769 69.2303 272.065C69.3989 272.357 69.6222 272.596 69.9002 272.783C70.1827 272.97 70.5314 273.063 70.9461 273.063C71.2879 273.063 71.5796 272.995 71.8211 272.858C72.0672 272.717 72.2654 272.523 72.4158 272.277C72.5708 272.031 72.6847 271.746 72.7576 271.423C72.8305 271.099 72.867 270.753 72.867 270.384ZM78.9474 274.137C78.4324 274.137 77.9653 274.05 77.5461 273.877C77.1313 273.699 76.7736 273.451 76.4728 273.132C76.1766 272.813 75.9487 272.435 75.7892 271.997C75.6297 271.56 75.55 271.081 75.55 270.562V270.274C75.55 269.673 75.6388 269.137 75.8166 268.668C75.9943 268.194 76.2358 267.793 76.5412 267.465C76.8465 267.137 77.1929 266.888 77.5802 266.72C77.9676 266.551 78.3686 266.467 78.7834 266.467C79.312 266.467 79.7677 266.558 80.1505 266.74C80.5379 266.923 80.8546 267.178 81.1007 267.506C81.3468 267.829 81.5291 268.212 81.6476 268.654C81.7661 269.092 81.8254 269.57 81.8254 270.09V270.657H76.3019V269.625H80.5607V269.529C80.5425 269.201 80.4741 268.882 80.3556 268.572C80.2417 268.262 80.0594 268.007 79.8088 267.807C79.5581 267.606 79.2163 267.506 78.7834 267.506C78.4963 267.506 78.2319 267.567 77.9904 267.69C77.7489 267.809 77.5415 267.987 77.3683 268.224C77.1951 268.461 77.0607 268.75 76.965 269.092C76.8693 269.434 76.8214 269.828 76.8214 270.274V270.562C76.8214 270.912 76.8693 271.243 76.965 271.553C77.0653 271.858 77.2088 272.127 77.3957 272.359C77.5871 272.592 77.8172 272.774 78.0861 272.906C78.3595 273.038 78.6694 273.104 79.0158 273.104C79.4624 273.104 79.8407 273.013 80.1505 272.831C80.4604 272.649 80.7316 272.405 80.964 272.1L81.7296 272.708C81.5701 272.95 81.3673 273.18 81.1213 273.398C80.8752 273.617 80.5721 273.795 80.2121 273.932C79.8566 274.068 79.4351 274.137 78.9474 274.137ZM91.3612 272.038C91.3612 271.856 91.3202 271.687 91.2382 271.532C91.1607 271.373 90.9989 271.229 90.7528 271.102C90.5113 270.969 90.1467 270.855 89.6591 270.76C89.2489 270.673 88.8775 270.571 88.5448 270.452C88.2167 270.334 87.9364 270.19 87.704 270.021C87.4761 269.853 87.3007 269.655 87.1776 269.427C87.0546 269.199 86.993 268.932 86.993 268.627C86.993 268.335 87.0568 268.06 87.1845 267.8C87.3166 267.54 87.5012 267.31 87.7382 267.109C87.9797 266.909 88.2691 266.752 88.6063 266.638C88.9436 266.524 89.3195 266.467 89.7343 266.467C90.3267 266.467 90.8326 266.572 91.2518 266.781C91.6711 266.991 91.9924 267.271 92.2157 267.622C92.439 267.968 92.5507 268.354 92.5507 268.777H91.286C91.286 268.572 91.2245 268.374 91.1014 268.183C90.983 267.987 90.8075 267.825 90.5751 267.697C90.3472 267.57 90.0669 267.506 89.7343 267.506C89.3833 267.506 89.0985 267.561 88.8798 267.67C88.6656 267.775 88.5083 267.909 88.4081 268.073C88.3124 268.237 88.2645 268.41 88.2645 268.593C88.2645 268.729 88.2873 268.853 88.3329 268.962C88.383 269.067 88.4696 269.165 88.5927 269.256C88.7157 269.342 88.8889 269.424 89.1122 269.502C89.3355 269.579 89.6203 269.657 89.9667 269.734C90.5728 269.871 91.0718 270.035 91.4637 270.227C91.8557 270.418 92.1473 270.653 92.3387 270.931C92.5302 271.209 92.6259 271.546 92.6259 271.942C92.6259 272.266 92.5575 272.562 92.4208 272.831C92.2886 273.1 92.0949 273.332 91.8397 273.528C91.5891 273.72 91.2883 273.87 90.9374 273.979C90.591 274.084 90.2014 274.137 89.7684 274.137C89.1167 274.137 88.5653 274.021 88.1141 273.788C87.663 273.556 87.3212 273.255 87.0887 272.886C86.8563 272.517 86.7401 272.127 86.7401 271.717H88.0116C88.0298 272.063 88.1301 272.339 88.3124 272.544C88.4947 272.744 88.718 272.888 88.9823 272.975C89.2466 273.057 89.5087 273.098 89.7684 273.098C90.1148 273.098 90.4042 273.052 90.6366 272.961C90.8736 272.87 91.0536 272.744 91.1766 272.585C91.2997 272.425 91.3612 272.243 91.3612 272.038ZM97.4963 274.137C96.9814 274.137 96.5142 274.05 96.095 273.877C95.6802 273.699 95.3225 273.451 95.0217 273.132C94.7255 272.813 94.4976 272.435 94.3381 271.997C94.1786 271.56 94.0989 271.081 94.0989 270.562V270.274C94.0989 269.673 94.1877 269.137 94.3655 268.668C94.5432 268.194 94.7847 267.793 95.0901 267.465C95.3954 267.137 95.7418 266.888 96.1291 266.72C96.5165 266.551 96.9176 266.467 97.3323 266.467C97.8609 266.467 98.3166 266.558 98.6995 266.74C99.0868 266.923 99.4036 267.178 99.6496 267.506C99.8957 267.829 100.078 268.212 100.197 268.654C100.315 269.092 100.374 269.57 100.374 270.09V270.657H94.8508V269.625H99.1096V269.529C99.0914 269.201 99.023 268.882 98.9045 268.572C98.7906 268.262 98.6083 268.007 98.3577 267.807C98.107 267.606 97.7652 267.506 97.3323 267.506C97.0452 267.506 96.7808 267.567 96.5393 267.69C96.2978 267.809 96.0904 267.987 95.9172 268.224C95.744 268.461 95.6096 268.75 95.5139 269.092C95.4182 269.434 95.3703 269.828 95.3703 270.274V270.562C95.3703 270.912 95.4182 271.243 95.5139 271.553C95.6142 271.858 95.7577 272.127 95.9446 272.359C96.136 272.592 96.3661 272.774 96.635 272.906C96.9084 273.038 97.2183 273.104 97.5647 273.104C98.0113 273.104 98.3896 273.013 98.6995 272.831C99.0093 272.649 99.2805 272.405 99.5129 272.1L100.279 272.708C100.119 272.95 99.9162 273.18 99.6702 273.398C99.4241 273.617 99.121 273.795 98.761 273.932C98.4055 274.068 97.984 274.137 97.4963 274.137ZM105.06 274.137C104.545 274.137 104.078 274.05 103.659 273.877C103.244 273.699 102.886 273.451 102.586 273.132C102.289 272.813 102.061 272.435 101.902 271.997C101.742 271.56 101.663 271.081 101.663 270.562V270.274C101.663 269.673 101.752 269.137 101.929 268.668C102.107 268.194 102.349 267.793 102.654 267.465C102.959 267.137 103.306 266.888 103.693 266.72C104.08 266.551 104.481 266.467 104.896 266.467C105.425 266.467 105.88 266.558 106.263 266.74C106.651 266.923 106.967 267.178 107.213 267.506C107.46 267.829 107.642 268.212 107.76 268.654C107.879 269.092 107.938 269.57 107.938 270.09V270.657H102.415V269.625H106.673V269.529C106.655 269.201 106.587 268.882 106.468 268.572C106.354 268.262 106.172 268.007 105.921 267.807C105.671 267.606 105.329 267.506 104.896 267.506C104.609 267.506 104.345 267.567 104.103 267.69C103.862 267.809 103.654 267.987 103.481 268.224C103.308 268.461 103.173 268.75 103.078 269.092C102.982 269.434 102.934 269.828 102.934 270.274V270.562C102.934 270.912 102.982 271.243 103.078 271.553C103.178 271.858 103.322 272.127 103.508 272.359C103.7 272.592 103.93 272.774 104.199 272.906C104.472 273.038 104.782 273.104 105.129 273.104C105.575 273.104 105.953 273.013 106.263 272.831C106.573 272.649 106.844 272.405 107.077 272.1L107.842 272.708C107.683 272.95 107.48 273.18 107.234 273.398C106.988 273.617 106.685 273.795 106.325 273.932C105.969 274.068 105.548 274.137 105.06 274.137ZM110.819 268.183V274H109.555V266.604H110.751L110.819 268.183ZM110.519 270.021L109.992 270.001C109.997 269.495 110.072 269.028 110.218 268.6C110.364 268.167 110.569 267.791 110.833 267.472C111.097 267.153 111.412 266.907 111.776 266.733C112.145 266.556 112.553 266.467 113 266.467C113.365 266.467 113.693 266.517 113.984 266.617C114.276 266.713 114.524 266.868 114.729 267.082C114.939 267.296 115.099 267.574 115.208 267.916C115.317 268.253 115.372 268.666 115.372 269.153V274H114.101V269.14C114.101 268.752 114.044 268.442 113.93 268.21C113.816 267.973 113.649 267.802 113.431 267.697C113.212 267.588 112.943 267.533 112.624 267.533C112.31 267.533 112.022 267.599 111.763 267.731C111.507 267.864 111.286 268.046 111.1 268.278C110.917 268.511 110.774 268.777 110.669 269.078C110.569 269.374 110.519 269.689 110.519 270.021ZM121.039 263.5H122.31V272.564L122.201 274H121.039V263.5ZM127.307 270.24V270.384C127.307 270.922 127.244 271.421 127.116 271.881C126.988 272.337 126.801 272.733 126.555 273.07C126.309 273.408 126.008 273.67 125.653 273.856C125.298 274.043 124.89 274.137 124.429 274.137C123.96 274.137 123.548 274.057 123.192 273.897C122.841 273.733 122.545 273.499 122.303 273.193C122.062 272.888 121.868 272.519 121.722 272.086C121.581 271.653 121.483 271.165 121.428 270.623V269.994C121.483 269.447 121.581 268.957 121.722 268.524C121.868 268.091 122.062 267.722 122.303 267.417C122.545 267.107 122.841 266.872 123.192 266.713C123.543 266.549 123.951 266.467 124.416 266.467C124.881 266.467 125.293 266.558 125.653 266.74C126.013 266.918 126.314 267.173 126.555 267.506C126.801 267.839 126.988 268.237 127.116 268.702C127.244 269.162 127.307 269.675 127.307 270.24ZM126.036 270.384V270.24C126.036 269.871 126.002 269.525 125.933 269.201C125.865 268.873 125.756 268.586 125.605 268.34C125.455 268.089 125.257 267.893 125.01 267.752C124.764 267.606 124.461 267.533 124.101 267.533C123.782 267.533 123.504 267.588 123.267 267.697C123.035 267.807 122.837 267.955 122.673 268.142C122.508 268.324 122.374 268.534 122.269 268.771C122.169 269.003 122.094 269.244 122.044 269.495V271.143C122.117 271.462 122.235 271.769 122.399 272.065C122.568 272.357 122.791 272.596 123.069 272.783C123.352 272.97 123.7 273.063 124.115 273.063C124.457 273.063 124.748 272.995 124.99 272.858C125.236 272.717 125.434 272.523 125.585 272.277C125.74 272.031 125.854 271.746 125.926 271.423C125.999 271.099 126.036 270.753 126.036 270.384ZM131.043 273.234L133.101 266.604H134.454L131.487 275.142C131.419 275.324 131.328 275.52 131.214 275.729C131.105 275.944 130.963 276.146 130.79 276.338C130.617 276.529 130.407 276.684 130.161 276.803C129.92 276.926 129.63 276.987 129.293 276.987C129.193 276.987 129.065 276.974 128.91 276.946C128.755 276.919 128.646 276.896 128.582 276.878L128.575 275.853C128.612 275.857 128.669 275.862 128.746 275.866C128.828 275.875 128.885 275.88 128.917 275.88C129.204 275.88 129.448 275.841 129.648 275.764C129.849 275.691 130.018 275.565 130.154 275.388C130.296 275.215 130.416 274.975 130.517 274.67L131.043 273.234ZM129.532 266.604L131.453 272.346L131.781 273.679L130.872 274.144L128.151 266.604H129.532ZM141.427 273.234L143.484 266.604H144.838L141.871 275.142C141.802 275.324 141.711 275.52 141.597 275.729C141.488 275.944 141.347 276.146 141.174 276.338C141 276.529 140.791 276.684 140.545 276.803C140.303 276.926 140.014 276.987 139.677 276.987C139.576 276.987 139.449 276.974 139.294 276.946C139.139 276.919 139.029 276.896 138.966 276.878L138.959 275.853C138.995 275.857 139.052 275.862 139.13 275.866C139.212 275.875 139.269 275.88 139.301 275.88C139.588 275.88 139.831 275.841 140.032 275.764C140.233 275.691 140.401 275.565 140.538 275.388C140.679 275.215 140.8 274.975 140.9 274.67L141.427 273.234ZM139.916 266.604L141.837 272.346L142.165 273.679L141.256 274.144L138.535 266.604H139.916ZM145.675 270.384V270.227C145.675 269.693 145.752 269.199 145.907 268.743C146.062 268.283 146.286 267.884 146.577 267.547C146.869 267.205 147.222 266.941 147.637 266.754C148.052 266.562 148.516 266.467 149.031 266.467C149.551 266.467 150.018 266.562 150.433 266.754C150.852 266.941 151.207 267.205 151.499 267.547C151.795 267.884 152.021 268.283 152.176 268.743C152.331 269.199 152.408 269.693 152.408 270.227V270.384C152.408 270.917 152.331 271.411 152.176 271.867C152.021 272.323 151.795 272.722 151.499 273.063C151.207 273.401 150.854 273.665 150.44 273.856C150.029 274.043 149.565 274.137 149.045 274.137C148.526 274.137 148.058 274.043 147.644 273.856C147.229 273.665 146.873 273.401 146.577 273.063C146.286 272.722 146.062 272.323 145.907 271.867C145.752 271.411 145.675 270.917 145.675 270.384ZM146.94 270.227V270.384C146.94 270.753 146.983 271.102 147.069 271.43C147.156 271.753 147.286 272.04 147.459 272.291C147.637 272.542 147.858 272.74 148.122 272.886C148.387 273.027 148.694 273.098 149.045 273.098C149.391 273.098 149.694 273.027 149.954 272.886C150.219 272.74 150.437 272.542 150.61 272.291C150.784 272.04 150.914 271.753 151 271.43C151.091 271.102 151.137 270.753 151.137 270.384V270.227C151.137 269.862 151.091 269.518 151 269.194C150.914 268.866 150.781 268.577 150.604 268.326C150.43 268.071 150.212 267.87 149.947 267.725C149.688 267.579 149.382 267.506 149.031 267.506C148.685 267.506 148.38 267.579 148.115 267.725C147.856 267.87 147.637 268.071 147.459 268.326C147.286 268.577 147.156 268.866 147.069 269.194C146.983 269.518 146.94 269.862 146.94 270.227ZM158.66 272.291V266.604H159.931V274H158.721L158.66 272.291ZM158.899 270.732L159.425 270.719C159.425 271.211 159.373 271.667 159.268 272.086C159.168 272.501 159.004 272.861 158.776 273.166C158.548 273.471 158.249 273.711 157.88 273.884C157.511 274.052 157.062 274.137 156.534 274.137C156.174 274.137 155.843 274.084 155.542 273.979C155.246 273.875 154.991 273.713 154.777 273.494C154.563 273.275 154.396 272.991 154.278 272.64C154.164 272.289 154.107 271.867 154.107 271.375V266.604H155.372V271.389C155.372 271.721 155.408 271.997 155.481 272.216C155.558 272.43 155.661 272.601 155.789 272.729C155.921 272.852 156.067 272.938 156.226 272.988C156.39 273.038 156.559 273.063 156.732 273.063C157.27 273.063 157.696 272.961 158.01 272.756C158.325 272.546 158.55 272.266 158.687 271.915C158.828 271.56 158.899 271.165 158.899 270.732ZM163.264 267.766V274H161.999V266.604H163.229L163.264 267.766ZM165.574 266.562L165.567 267.738C165.462 267.715 165.362 267.702 165.266 267.697C165.175 267.688 165.07 267.684 164.952 267.684C164.66 267.684 164.403 267.729 164.18 267.82C163.956 267.911 163.767 268.039 163.612 268.203C163.457 268.367 163.334 268.563 163.243 268.791C163.156 269.014 163.099 269.26 163.072 269.529L162.717 269.734C162.717 269.288 162.76 268.868 162.847 268.477C162.938 268.085 163.077 267.738 163.264 267.438C163.45 267.132 163.687 266.895 163.974 266.727C164.266 266.553 164.612 266.467 165.014 266.467C165.105 266.467 165.209 266.478 165.328 266.501C165.446 266.519 165.528 266.54 165.574 266.562ZM171.76 267.766V274H170.496V266.604H171.726L171.76 267.766ZM174.071 266.562L174.064 267.738C173.959 267.715 173.859 267.702 173.763 267.697C173.672 267.688 173.567 267.684 173.449 267.684C173.157 267.684 172.9 267.729 172.676 267.82C172.453 267.911 172.264 268.039 172.109 268.203C171.954 268.367 171.831 268.563 171.74 268.791C171.653 269.014 171.596 269.26 171.569 269.529L171.213 269.734C171.213 269.288 171.257 268.868 171.343 268.477C171.434 268.085 171.573 267.738 171.76 267.438C171.947 267.132 172.184 266.895 172.471 266.727C172.763 266.553 173.109 266.467 173.51 266.467C173.601 266.467 173.706 266.478 173.825 266.501C173.943 266.519 174.025 266.54 174.071 266.562ZM178.312 274.137C177.797 274.137 177.33 274.05 176.911 273.877C176.496 273.699 176.139 273.451 175.838 273.132C175.542 272.813 175.314 272.435 175.154 271.997C174.995 271.56 174.915 271.081 174.915 270.562V270.274C174.915 269.673 175.004 269.137 175.182 268.668C175.359 268.194 175.601 267.793 175.906 267.465C176.212 267.137 176.558 266.888 176.945 266.72C177.333 266.551 177.734 266.467 178.148 266.467C178.677 266.467 179.133 266.558 179.516 266.74C179.903 266.923 180.22 267.178 180.466 267.506C180.712 267.829 180.894 268.212 181.013 268.654C181.131 269.092 181.19 269.57 181.19 270.09V270.657H175.667V269.625H179.926V269.529C179.907 269.201 179.839 268.882 179.721 268.572C179.607 268.262 179.424 268.007 179.174 267.807C178.923 267.606 178.581 267.506 178.148 267.506C177.861 267.506 177.597 267.567 177.355 267.69C177.114 267.809 176.906 267.987 176.733 268.224C176.56 268.461 176.426 268.75 176.33 269.092C176.234 269.434 176.186 269.828 176.186 270.274V270.562C176.186 270.912 176.234 271.243 176.33 271.553C176.43 271.858 176.574 272.127 176.761 272.359C176.952 272.592 177.182 272.774 177.451 272.906C177.725 273.038 178.034 273.104 178.381 273.104C178.827 273.104 179.206 273.013 179.516 272.831C179.825 272.649 180.097 272.405 180.329 272.1L181.095 272.708C180.935 272.95 180.732 273.18 180.486 273.398C180.24 273.617 179.937 273.795 179.577 273.932C179.222 274.068 178.8 274.137 178.312 274.137ZM185.767 273.098C186.068 273.098 186.346 273.036 186.601 272.913C186.856 272.79 187.066 272.621 187.23 272.407C187.394 272.188 187.487 271.94 187.51 271.662H188.713C188.69 272.1 188.542 272.507 188.269 272.886C188 273.259 187.647 273.562 187.209 273.795C186.772 274.023 186.291 274.137 185.767 274.137C185.211 274.137 184.726 274.039 184.311 273.843C183.901 273.647 183.559 273.378 183.285 273.036C183.017 272.694 182.814 272.302 182.677 271.86C182.545 271.414 182.479 270.942 182.479 270.445V270.158C182.479 269.661 182.545 269.192 182.677 268.75C182.814 268.303 183.017 267.909 183.285 267.567C183.559 267.226 183.901 266.957 184.311 266.761C184.726 266.565 185.211 266.467 185.767 266.467C186.346 266.467 186.852 266.585 187.284 266.822C187.717 267.055 188.057 267.374 188.303 267.779C188.554 268.18 188.69 268.636 188.713 269.146H187.51C187.487 268.841 187.401 268.565 187.25 268.319C187.104 268.073 186.904 267.877 186.649 267.731C186.398 267.581 186.104 267.506 185.767 267.506C185.38 267.506 185.054 267.583 184.789 267.738C184.53 267.889 184.322 268.094 184.167 268.354C184.017 268.609 183.908 268.894 183.839 269.208C183.775 269.518 183.743 269.835 183.743 270.158V270.445C183.743 270.769 183.775 271.088 183.839 271.402C183.903 271.717 184.01 272.002 184.16 272.257C184.315 272.512 184.523 272.717 184.783 272.872C185.047 273.022 185.375 273.098 185.767 273.098ZM191.649 266.604V274H190.378V266.604H191.649ZM190.282 264.642C190.282 264.437 190.343 264.263 190.466 264.122C190.594 263.981 190.781 263.91 191.027 263.91C191.269 263.91 191.453 263.981 191.581 264.122C191.713 264.263 191.779 264.437 191.779 264.642C191.779 264.838 191.713 265.006 191.581 265.147C191.453 265.284 191.269 265.353 191.027 265.353C190.781 265.353 190.594 265.284 190.466 265.147C190.343 265.006 190.282 264.838 190.282 264.642ZM195.084 268.025V276.844H193.812V266.604H194.975L195.084 268.025ZM200.067 270.24V270.384C200.067 270.922 200.004 271.421 199.876 271.881C199.748 272.337 199.562 272.733 199.315 273.07C199.074 273.408 198.775 273.67 198.42 273.856C198.064 274.043 197.657 274.137 197.196 274.137C196.727 274.137 196.312 274.059 195.952 273.904C195.592 273.749 195.287 273.524 195.036 273.228C194.785 272.931 194.585 272.576 194.435 272.161C194.289 271.746 194.188 271.279 194.134 270.76V269.994C194.188 269.447 194.291 268.957 194.441 268.524C194.592 268.091 194.79 267.722 195.036 267.417C195.287 267.107 195.59 266.872 195.945 266.713C196.301 266.549 196.711 266.467 197.176 266.467C197.641 266.467 198.053 266.558 198.413 266.74C198.773 266.918 199.076 267.173 199.322 267.506C199.568 267.839 199.753 268.237 199.876 268.702C200.004 269.162 200.067 269.675 200.067 270.24ZM198.796 270.384V270.24C198.796 269.871 198.757 269.525 198.68 269.201C198.602 268.873 198.481 268.586 198.317 268.34C198.158 268.089 197.953 267.893 197.702 267.752C197.451 267.606 197.153 267.533 196.807 267.533C196.488 267.533 196.21 267.588 195.973 267.697C195.74 267.807 195.542 267.955 195.378 268.142C195.214 268.324 195.079 268.534 194.975 268.771C194.874 269.003 194.799 269.244 194.749 269.495V271.266C194.84 271.585 194.968 271.885 195.132 272.168C195.296 272.446 195.515 272.672 195.788 272.845C196.062 273.013 196.406 273.098 196.82 273.098C197.162 273.098 197.456 273.027 197.702 272.886C197.953 272.74 198.158 272.542 198.317 272.291C198.481 272.04 198.602 271.753 198.68 271.43C198.757 271.102 198.796 270.753 198.796 270.384ZM203.195 266.604V274H201.923V266.604H203.195ZM201.827 264.642C201.827 264.437 201.889 264.263 202.012 264.122C202.14 263.981 202.327 263.91 202.573 263.91C202.814 263.91 202.999 263.981 203.126 264.122C203.258 264.263 203.325 264.437 203.325 264.642C203.325 264.838 203.258 265.006 203.126 265.147C202.999 265.284 202.814 265.353 202.573 265.353C202.327 265.353 202.14 265.284 202.012 265.147C201.889 265.006 201.827 264.838 201.827 264.642ZM208.434 274.137C207.919 274.137 207.452 274.05 207.033 273.877C206.618 273.699 206.26 273.451 205.96 273.132C205.663 272.813 205.436 272.435 205.276 271.997C205.117 271.56 205.037 271.081 205.037 270.562V270.274C205.037 269.673 205.126 269.137 205.303 268.668C205.481 268.194 205.723 267.793 206.028 267.465C206.333 267.137 206.68 266.888 207.067 266.72C207.454 266.551 207.856 266.467 208.27 266.467C208.799 266.467 209.255 266.558 209.637 266.74C210.025 266.923 210.342 267.178 210.588 267.506C210.834 267.829 211.016 268.212 211.134 268.654C211.253 269.092 211.312 269.57 211.312 270.09V270.657H205.789V269.625H210.048V269.529C210.029 269.201 209.961 268.882 209.842 268.572C209.729 268.262 209.546 268.007 209.296 267.807C209.045 267.606 208.703 267.506 208.27 267.506C207.983 267.506 207.719 267.567 207.477 267.69C207.236 267.809 207.028 267.987 206.855 268.224C206.682 268.461 206.548 268.75 206.452 269.092C206.356 269.434 206.308 269.828 206.308 270.274V270.562C206.308 270.912 206.356 271.243 206.452 271.553C206.552 271.858 206.696 272.127 206.883 272.359C207.074 272.592 207.304 272.774 207.573 272.906C207.846 273.038 208.156 273.104 208.503 273.104C208.949 273.104 209.328 273.013 209.637 272.831C209.947 272.649 210.218 272.405 210.451 272.1L211.217 272.708C211.057 272.95 210.854 273.18 210.608 273.398C210.362 273.617 210.059 273.795 209.699 273.932C209.343 274.068 208.922 274.137 208.434 274.137ZM214.193 268.183V274H212.929V266.604H214.125L214.193 268.183ZM213.893 270.021L213.366 270.001C213.371 269.495 213.446 269.028 213.592 268.6C213.738 268.167 213.943 267.791 214.207 267.472C214.471 267.153 214.786 266.907 215.15 266.733C215.52 266.556 215.927 266.467 216.374 266.467C216.739 266.467 217.067 266.517 217.358 266.617C217.65 266.713 217.899 266.868 218.104 267.082C218.313 267.296 218.473 267.574 218.582 267.916C218.691 268.253 218.746 268.666 218.746 269.153V274H217.475V269.14C217.475 268.752 217.418 268.442 217.304 268.21C217.19 267.973 217.024 267.802 216.805 267.697C216.586 267.588 216.317 267.533 215.998 267.533C215.684 267.533 215.397 267.599 215.137 267.731C214.882 267.864 214.661 268.046 214.474 268.278C214.291 268.511 214.148 268.777 214.043 269.078C213.943 269.374 213.893 269.689 213.893 270.021ZM223.904 266.604V267.574H219.905V266.604H223.904ZM221.258 264.806H222.523V272.168C222.523 272.419 222.562 272.608 222.639 272.735C222.717 272.863 222.817 272.947 222.94 272.988C223.063 273.029 223.195 273.05 223.336 273.05C223.441 273.05 223.551 273.041 223.664 273.022C223.783 273 223.872 272.981 223.931 272.968L223.938 274C223.838 274.032 223.706 274.062 223.541 274.089C223.382 274.121 223.188 274.137 222.96 274.137C222.65 274.137 222.366 274.075 222.106 273.952C221.846 273.829 221.639 273.624 221.484 273.337C221.333 273.045 221.258 272.653 221.258 272.161V264.806Z" fill="#3F3838"/>
<path d="M173.435 524.96V539H170.015V530.58L166.875 539H164.115L160.955 530.56V539H157.535V524.96H161.575L165.515 534.68L169.415 524.96H173.435ZM175.214 533.4C175.214 532.253 175.428 531.247 175.854 530.38C176.294 529.513 176.888 528.847 177.634 528.38C178.381 527.913 179.214 527.68 180.134 527.68C180.921 527.68 181.608 527.84 182.194 528.16C182.794 528.48 183.254 528.9 183.574 529.42V527.84H186.994V539H183.574V537.42C183.241 537.94 182.774 538.36 182.174 538.68C181.588 539 180.901 539.16 180.114 539.16C179.208 539.16 178.381 538.927 177.634 538.46C176.888 537.98 176.294 537.307 175.854 536.44C175.428 535.56 175.214 534.547 175.214 533.4ZM183.574 533.42C183.574 532.567 183.334 531.893 182.854 531.4C182.388 530.907 181.814 530.66 181.134 530.66C180.454 530.66 179.874 530.907 179.394 531.4C178.928 531.88 178.694 532.547 178.694 533.4C178.694 534.253 178.928 534.933 179.394 535.44C179.874 535.933 180.454 536.18 181.134 536.18C181.814 536.18 182.388 535.933 182.854 535.44C183.334 534.947 183.574 534.273 183.574 533.42ZM192.889 529.7C193.289 529.087 193.789 528.607 194.389 528.26C194.989 527.9 195.655 527.72 196.389 527.72V531.34H195.449C194.595 531.34 193.955 531.527 193.529 531.9C193.102 532.26 192.889 532.9 192.889 533.82V539H189.469V527.84H192.889V529.7ZM199.743 526.68C199.143 526.68 198.65 526.507 198.263 526.16C197.89 525.8 197.703 525.36 197.703 524.84C197.703 524.307 197.89 523.867 198.263 523.52C198.65 523.16 199.143 522.98 199.743 522.98C200.33 522.98 200.81 523.16 201.183 523.52C201.57 523.867 201.763 524.307 201.763 524.84C201.763 525.36 201.57 525.8 201.183 526.16C200.81 526.507 200.33 526.68 199.743 526.68ZM201.443 527.84V539H198.023V527.84H201.443ZM214.022 524.96V527.7H210.302V539H206.882V527.7H203.162V524.96H214.022ZM226.258 533.24C226.258 533.56 226.238 533.893 226.198 534.24H218.458C218.511 534.933 218.731 535.467 219.118 535.84C219.518 536.2 220.005 536.38 220.578 536.38C221.431 536.38 222.025 536.02 222.358 535.3H225.998C225.811 536.033 225.471 536.693 224.978 537.28C224.498 537.867 223.891 538.327 223.158 538.66C222.425 538.993 221.605 539.16 220.698 539.16C219.605 539.16 218.631 538.927 217.778 538.46C216.925 537.993 216.258 537.327 215.778 536.46C215.298 535.593 215.058 534.58 215.058 533.42C215.058 532.26 215.291 531.247 215.758 530.38C216.238 529.513 216.905 528.847 217.758 528.38C218.611 527.913 219.591 527.68 220.698 527.68C221.778 527.68 222.738 527.907 223.578 528.36C224.418 528.813 225.071 529.46 225.538 530.3C226.018 531.14 226.258 532.12 226.258 533.24ZM222.758 532.34C222.758 531.753 222.558 531.287 222.158 530.94C221.758 530.593 221.258 530.42 220.658 530.42C220.085 530.42 219.598 530.587 219.198 530.92C218.811 531.253 218.571 531.727 218.478 532.34H222.758ZM234.662 539L232.522 535.9L230.722 539H227.022L230.702 533.3L226.922 527.84H230.762L232.902 530.92L234.702 527.84H238.402L234.662 533.46L238.502 539H234.662ZM246.04 536.1V539H244.3C243.06 539 242.093 538.7 241.4 538.1C240.707 537.487 240.36 536.493 240.36 535.12V530.68H239V527.84H240.36V525.12H243.78V527.84H246.02V530.68H243.78V535.16C243.78 535.493 243.86 535.733 244.02 535.88C244.18 536.027 244.447 536.1 244.82 536.1H246.04Z" fill="#FFE589" fill-opacity="0.6"/>
<defs>
<filter id="filter0_d_270_74" x="3.75" y="8.74463" width="273.503" height="590.509" filterUnits="userSpaceOnUse" color-interpolation-filters="sRGB">
<feFlood flood-opacity="0" result="BackgroundImageFix"/>
<feColorMatrix in="SourceAlpha" type="matrix" values="0 0 0 0 0 0 0 0 0 0 0 0 0 0 0 0 0 0 127 0" result="hardAlpha"/>
<feOffset dy="4"/>
<feGaussianBlur stdDeviation="2"/>
<feComposite in2="hardAlpha" operator="out"/>
<feColorMatrix type="matrix" values="0 0 0 0 0 0 0 0 0 0 0 0 0 0 0 0 0 0 0.25 0"/>
<feBlend mode="normal" in2="BackgroundImageFix" result="effect1_dropShadow_270_74"/>
<feBlend mode="normal" in="SourceGraphic" in2="effect1_dropShadow_270_74" result="shape"/>
</filter>
</defs>
</svg>
