<svg width="1280" height="720" xmlns="http://www.w3.org/2000/svg" xmlns:xlink="http://www.w3.org/1999/xlink" overflow="hidden"><defs><clipPath id="clip0"><rect x="545" y="331" width="250" height="58"/></clipPath><clipPath id="clip1"><rect x="545" y="331" width="250" height="58"/></clipPath></defs><g><rect x="0" y="0" width="1280" height="720" fill="#008080"/><g clip-path="url(#clip0)"><g clip-path="url(#clip1)"><g><path d="M55.6977 7.8495 55.6977 56.9239 43.7437 56.9239 43.7437 27.4932 32.7684 56.9239 23.1213 56.9239 12.0761 27.4233 12.0761 56.9239 0.122064 56.9239 0.122064 7.8495 14.2432 7.8495 28.0147 41.8241 41.6465 7.8495 55.6977 7.8495ZM61.9172 37.3501C61.9172 33.3421 62.6629 29.8234 64.1542 26.7942 65.6922 23.7649 67.7661 21.4346 70.3759 19.8035 72.9858 18.1724 75.8985 17.3568 79.1142 17.3568 81.8639 17.3568 84.264 17.916 86.3146 19.0345 88.4118 20.1531 90.0196 21.6211 91.1381 23.4387L91.1381 17.916 103.092 17.916 103.092 56.9239 91.1381 56.9239 91.1381 51.4013C89.9731 53.2188 88.3419 54.6869 86.2447 55.8054 84.1941 56.9239 81.794 57.4831 79.0443 57.4831 75.8752 57.4831 72.9858 56.6675 70.3759 55.0364 67.7661 53.3586 65.6922 51.0051 64.1542 47.9758 62.6629 44.9 61.9172 41.358 61.9172 37.3501ZM91.1381 37.42C91.1381 34.4372 90.2992 32.0838 88.6215 30.3594 86.9904 28.635 84.9864 27.7729 82.6095 27.7729 80.2327 27.7729 78.2054 28.635 76.5277 30.3594 74.8965 32.0372 74.0809 34.3673 74.0809 37.3501 74.0809 40.3328 74.8965 42.7096 76.5277 44.4805 78.2054 46.2049 80.2327 47.0671 82.6095 47.0671 84.9864 47.0671 86.9904 46.2049 88.6215 44.4805 90.2992 42.7561 91.1381 40.4027 91.1381 37.42ZM123.695 24.4173C125.093 22.2735 126.84 20.5958 128.938 19.3841 131.035 18.1258 133.365 17.4966 135.928 17.4966L135.928 30.1497 132.643 30.1497C129.66 30.1497 127.423 30.8021 125.932 32.1071 124.44 33.3654 123.695 35.6024 123.695 38.8181L123.695 56.9239 111.741 56.9239 111.741 17.916 123.695 17.916 123.695 24.4173ZM147.654 13.8615C145.556 13.8615 143.833 13.2556 142.48 12.0439 141.176 10.7856 140.523 9.24763 140.523 7.43006 140.523 5.56589 141.176 4.02794 142.48 2.81623 143.833 1.55792 145.556 0.928754 147.654 0.928754 149.705 0.928754 151.383 1.55792 152.687 2.81623 154.039 4.02794 154.714 5.56589 154.714 7.43006 154.714 9.24763 154.039 10.7856 152.687 12.0439 151.383 13.2556 149.705 13.8615 147.654 13.8615ZM153.596 17.916 153.596 56.9239 141.642 56.9239 141.642 17.916 153.596 17.916ZM197.562 7.8495 197.562 17.4267 184.559 17.4267 184.559 56.9239 172.605 56.9239 172.605 17.4267 159.603 17.4267 159.603 7.8495 197.562 7.8495ZM240.332 36.7908C240.332 37.9093 240.262 39.0745 240.122 40.2861L213.068 40.2861C213.255 42.7096 214.024 44.5737 215.375 45.8786 216.773 47.137 218.474 47.7661 220.478 47.7661 223.461 47.7661 225.534 46.5078 226.7 43.9912L239.423 43.9912C238.771 46.5544 237.582 48.8614 235.858 50.9119 234.18 52.9625 232.06 54.5703 229.496 55.7355 226.933 56.9006 224.066 57.4831 220.898 57.4831 217.076 57.4831 213.674 56.6675 210.691 55.0364 207.708 53.4053 205.378 51.075 203.701 48.0458 202.023 45.0165 201.184 41.4745 201.184 37.42 201.184 33.3654 202 29.8234 203.631 26.7942 205.308 23.7649 207.638 21.4346 210.621 19.8035 213.604 18.1724 217.03 17.3568 220.898 17.3568 224.673 17.3568 228.028 18.149 230.964 19.7336 233.9 21.3182 236.184 23.5785 237.815 26.5145 239.493 29.4506 240.332 32.876 240.332 36.7908ZM228.098 33.645C228.098 31.5944 227.399 29.9632 226.001 28.7516 224.603 27.5399 222.855 26.934 220.758 26.934 218.753 26.934 217.053 27.5165 215.655 28.6816 214.303 29.8468 213.465 31.5012 213.138 33.645L228.098 33.645ZM269.707 56.9239 262.227 46.0884 255.936 56.9239 243.003 56.9239 255.866 37.0005 242.654 17.916 256.076 17.916 263.556 28.6816 269.847 17.916 282.78 17.916 269.707 37.5598 283.129 56.9239 269.707 56.9239ZM309.476 46.7874 309.476 56.9239 303.394 56.9239C299.06 56.9239 295.682 55.8753 293.258 53.7781 290.835 51.6343 289.623 48.1623 289.623 43.362L289.623 27.8428 284.869 27.8428 284.869 17.916 289.623 17.916 289.623 8.40876 301.577 8.40876 301.577 17.916 309.406 17.916 309.406 27.8428 301.577 27.8428 301.577 43.5018C301.577 44.667 301.856 45.5058 302.416 46.0185 302.975 46.5311 303.908 46.7874 305.212 46.7874L309.476 46.7874Z" fill="#FFE589" transform="matrix(1 0 0 1.00134 485.414 331)"/></g></g></g></g></svg>